<?xml version="1.0" encoding="UTF-8"?>
<svg width="500px" height="518px" viewBox="0 0 500 518" version="1.1" xmlns="http://www.w3.org/2000/svg" xmlns:xlink="http://www.w3.org/1999/xlink" style="background: #FFFFFF;">
    <!-- Generator: Sketch 3.8.3 (29802) - http://www.bohemiancoding.com/sketch -->
    <title>datacif-engrenagens</title>
    <desc>Created with Sketch.</desc>
    <defs>
        <polyline id="path-1" points="0.937004678 102.613715 44.7086805 27.4236062 129.052367 27.4236062"></polyline>
        <polyline id="path-2" points="0 221.000007 78.0116223 28.5130841 230.648278 28.5130841"></polyline>
        <polyline id="path-3" points="0.106991039 70.9955887 44.1025798 27 159.339276 27"></polyline>
        <polyline id="path-4" points="0.0778635225 0.298247867 53.3934611 89 140.659284 88.9999996"></polyline>
        <polyline id="path-5" points="0 0 61.4789543 43.177475 177.031845 43.177475"></polyline>
    </defs>
    <g id="Page-1" stroke="none" stroke-width="1" fill="none" fill-rule="evenodd">
        <g id="datacif-engrenagens">
            <g id="Group-2" transform="translate(250.000000, 255.000000) rotate(-344.000000) translate(-250.000000, -255.000000) translate(58.000000, 63.000000)">
                <path d="M215.349459,267.039624 C212.48,265.502871 209.466729,264.252235 206.352565,263.304282 L202.051012,269.847341 C199.006871,269.092894 195.888188,268.679529 192.752188,268.615529 L190.302871,261.177976 C187.049412,261.281882 183.814024,261.705035 180.643388,262.441412 L180.190118,270.258447 C177.176094,271.127341 174.268235,272.329035 171.520753,273.840941 L165.680941,268.624565 C162.915388,270.340518 160.325271,272.325271 157.947482,274.547953 L161.462965,281.545035 C159.287718,283.803859 157.369976,286.298353 155.746635,288.981835 L148.080941,287.384094 C146.544188,290.253553 145.2928,293.267576 144.3456,296.380988 L150.888659,300.683294 C150.133459,303.727435 149.720847,306.846118 149.656094,309.981892 L142.218541,312.430984 C142.322447,315.684367 142.7456,318.919755 143.481976,322.090391 L151.299765,322.544113 C152.167906,325.557911 153.3696,328.465544 154.881506,331.213327 L149.665129,337.053139 C151.381835,339.818767 153.365835,342.409111 155.589271,344.786748 L162.5856,341.270965 C164.845176,343.446664 167.339671,345.364028 170.023153,346.98752 L168.425412,354.653289 C171.294871,356.190118 174.308141,357.44128 177.422306,358.388781 L181.723859,351.845572 C184.768,352.60032 187.886682,353.013534 191.022682,353.07776 L193.472,360.515464 C196.725459,360.411708 199.960847,359.98848 203.131482,359.252028 L203.584753,351.434616 C206.598776,350.566024 209.506635,349.36448 212.254118,347.852198 L218.093929,353.068951 C220.859482,351.35232 223.4496,349.368169 225.827388,347.145035 L222.311906,340.148104 C224.487153,337.888979 226.404894,335.394635 228.028235,332.711002 L235.693929,334.308969 C237.230682,331.439511 238.482071,328.426014 239.430024,325.311849 L232.886212,321.010296 C233.641412,317.966005 234.054776,314.847096 234.118776,311.711322 L241.556329,309.262231 C241.452424,306.008847 241.029271,302.773459 240.292894,299.602824 L232.475106,299.1488 C231.606965,296.135529 230.405271,293.227671 228.893365,290.480188 L234.109741,284.640376 C232.393035,281.874071 230.409035,279.283953 228.1856,276.906165 L221.189271,280.4224 C218.929694,278.2464 216.4352,276.329412 213.751718,274.706071 L215.349459,267.039624 Z M195.698447,301.667388 C200.764988,303.771106 203.169882,309.591642 201.066918,314.657732 C198.9632,319.723821 193.142212,322.129092 188.076424,320.025675 C183.010635,317.922259 180.604988,312.101572 182.708706,307.035859 C184.811671,301.969318 190.632659,299.564424 195.698447,301.667388 L195.698447,301.667388 Z" id="Fill-1" fill="#FFE02F"></path>
                <path d="M120.048941,93.8014118 C117.5168,91.7564235 114.788894,89.9651765 111.906635,88.4532706 L106.459859,94.0792471 C103.609976,92.7698824 100.623059,91.7820235 97.5540706,91.1337412 L96.5353412,83.3701647 C93.3195294,82.8649412 90.0623059,82.6774588 86.8096,82.8092235 L84.9054118,90.4048941 C81.7829647,90.6962824 78.7019294,91.3340235 75.7202824,92.3075765 L70.9562729,86.0928 C67.9189835,87.2636235 65.0039718,88.7296 62.2533271,90.4696471 L64.4022212,97.9998118 C61.8432,99.8136471 59.4942494,101.906071 57.3985882,104.240188 L50.1655341,101.240471 C48.12032,103.772612 46.3289976,106.499765 44.8171671,109.382776 L50.4430682,114.8288 C49.1337035,117.679435 48.14592,120.666353 47.4978635,123.735341 L39.7338353,124.753318 C39.2289129,127.969129 39.0411294,131.227106 39.1731953,134.479059 L46.7687153,136.383247 C47.0598776,139.506447 47.69792,142.586729 48.6710212,145.568376 L42.4565459,150.332988 C43.6270682,153.370353 45.0931953,156.284988 46.8337694,159.035482 L54.3637082,156.886588 C56.1773176,159.445835 58.2701929,161.795012 60.6038588,163.890447 L57.6039153,171.1232 C60.1363576,173.168941 62.8635106,174.960188 65.7462212,176.472094 L71.1929224,170.846118 C74.0430306,172.155482 77.0304,173.143341 80.0986353,173.790871 L81.1173647,181.5552 C84.3331765,182.060424 87.5904,182.247906 90.8431059,182.116141 L92.7472941,174.520471 C95.8697412,174.229082 98.9507765,173.591341 101.932424,172.617788 L106.696282,178.832565 C109.733647,177.661741 112.649035,176.195765 115.399529,174.454965 L113.250635,166.925553 C115.809882,165.111718 118.158306,163.018541 120.254494,160.685176 L127.487247,163.684894 C129.532235,161.152753 131.323482,158.4256 132.835388,155.542588 L127.209412,150.095812 C128.518776,147.245929 129.506635,144.259012 130.154918,141.190024 L137.919247,140.171294 C138.423718,136.956235 138.611953,133.698259 138.479435,130.446306 L130.883765,128.542118 C130.593129,125.418918 129.954635,122.338635 128.981835,119.356988 L135.196612,114.592376 C134.025788,111.555012 132.559812,108.640376 130.819012,105.889882 L123.288847,108.038776 C121.475765,105.479529 119.382588,103.130353 117.049224,101.034918 L120.048941,93.8014118 Z M94.2832941,124.155482 C98.8679529,127.167247 100.144941,133.334588 97.1331765,137.919247 C94.1221647,142.503906 87.9548235,143.780894 83.3701647,140.769882 C78.7847529,137.758118 77.5077647,131.590776 80.5195294,127.006118 C83.5312941,122.421459 89.6978824,121.143718 94.2832941,124.155482 L94.2832941,124.155482 Z" id="Fill-2" fill="#4A90E2"></path>
                <path d="M310.244141,85.1809882 C307.146541,84.1788235 303.958588,83.4838588 300.725459,83.1051294 L297.656471,90.3092706 C294.526494,90.1082353 291.383718,90.2565647 288.286871,90.7512471 L284.553788,83.8678588 C281.370353,84.5485176 278.262212,85.5408941 275.273035,86.8291765 L276.217224,94.6025412 C273.406494,95.9939765 270.7584,97.6933647 268.323388,99.6705882 L261.649318,95.5753412 C259.233129,97.7566118 257.0368,100.170541 255.092706,102.780988 L259.797082,109.040941 C258.057788,111.650635 256.615153,114.446306 255.494776,117.376 L247.6672,117.167435 C246.665035,120.264282 245.970071,123.452235 245.591341,126.685365 L252.795482,129.754353 C252.594447,132.884329 252.742776,136.027106 253.237459,139.123953 L246.354071,142.857035 C247.034729,146.040471 248.026353,149.148612 249.315388,152.137788 L257.088753,151.1936 C258.479435,154.005082 260.179576,156.652424 262.156047,159.087435 L258.061553,165.762259 C260.242824,168.178447 262.656,170.374024 265.266447,172.318871 L271.5264,167.614494 C274.136847,169.353035 276.932518,170.796424 279.862212,171.9168 L279.652894,179.744376 C282.750494,180.746541 285.938447,181.441506 289.171576,181.819482 L292.240565,174.615341 C295.370541,174.817129 298.513318,174.6688 301.610165,174.174118 L305.343247,181.057506 C308.526682,180.376847 311.634824,179.384471 314.624,178.095435 L313.679812,170.322071 C316.491294,168.931388 319.138635,167.232 321.573647,165.254776 L328.247718,169.349271 C330.663906,167.168 332.860235,164.754824 334.804329,162.144376 L330.099953,155.884424 C331.839247,153.274729 333.282635,150.479059 334.402259,147.549365 L342.230588,147.757929 C343.232,144.661082 343.926965,141.473129 344.305694,138.24 L337.101553,135.171012 C337.302588,132.041035 337.154259,128.898259 336.659576,125.800659 L343.543718,122.067576 C342.862306,118.884894 341.870682,115.776 340.581647,112.787576 L332.808282,113.731765 C331.4176,110.920282 329.717459,108.272941 327.740988,105.837929 L331.835482,99.1631059 C329.654212,96.7469176 327.241035,94.5505882 324.630588,92.6064941 L318.370635,97.3108706 C315.760188,95.5715765 312.964518,94.1289412 310.034824,93.0085647 L310.244141,85.1809882 Z M297.066165,122.752 C302.4256,123.920565 305.828141,129.220518 304.658824,134.579953 C303.490259,139.939388 298.190306,143.341929 292.830871,142.173365 C287.471435,141.0048 284.068894,135.704847 285.238212,130.345412 C286.406776,124.985976 291.706729,121.583435 297.066165,122.752 L297.066165,122.752 Z" id="Fill-3" fill="#3ACCA1"></path>
                <path d="M201.054118,116.238306 C198.9248,115.970259 196.784188,115.793318 194.639812,115.705976 L190.523482,125.321035 C187.541835,125.366965 184.566212,125.613176 181.617694,126.058165 L175.975906,117.251012 C173.8752,117.689224 171.793318,118.216282 169.736282,118.830682 L168.964518,129.261176 C166.159812,130.273129 163.425882,131.471812 160.781553,132.849694 L152.585788,126.351812 C150.741082,127.448847 148.943059,128.623435 147.196988,129.871812 L149.854118,139.987576 C147.529035,141.855624 145.332706,143.877271 143.279435,146.039718 L133.417412,142.554353 C132.028988,144.191247 130.709835,145.886118 129.463718,147.633694 L135.261365,156.338447 C133.669647,158.860047 132.248094,161.485553 131.008,164.197647 L120.549647,164.103529 C119.767341,166.102588 119.069365,168.133271 118.458729,170.191059 L126.768941,176.542118 C126.081506,179.443953 125.589835,182.387953 125.297694,185.356047 L115.374682,188.662965 C115.284329,190.807341 115.284329,192.954729 115.374682,195.099106 L125.296188,198.407529 C125.588329,201.375624 126.079247,204.320376 126.766682,207.222212 L118.455718,213.571765 C119.0656,215.629553 119.762824,217.660988 120.545129,219.660047 L131.003482,219.567435 C132.243576,222.279529 133.664376,224.905035 135.256094,227.426635 L129.456941,236.130635 C130.702306,237.878965 132.021459,239.573835 133.409882,241.210729 L143.271906,237.726871 C145.325176,239.889318 147.521506,241.911718 149.845835,243.779765 L147.1872,253.895529 C148.932518,255.143906 150.730541,256.318494 152.575247,257.416282 L160.771765,250.919153 C163.416094,252.297788 166.150024,253.497224 168.954729,254.509929 L169.724988,264.940424 C171.781271,265.554824 173.863153,266.081882 175.964612,266.520847 L181.607153,257.714447 C184.555671,258.160188 187.531294,258.407153 190.512941,258.453082 L194.627765,268.068894 C196.772141,267.982306 198.912753,267.805365 201.042071,267.538071 L203.52,257.376376 C206.453459,256.840282 209.347765,256.107671 212.182588,255.183812 L219.196988,262.942118 C221.197553,262.163576 223.164235,261.301459 225.091765,260.356518 L224.136282,249.941835 C226.736188,248.481882 229.235953,246.849506 231.617506,245.054494 L240.770259,250.115012 C242.410165,248.7296 243.989835,247.274918 245.506259,245.756235 L241.220518,236.215718 C243.206024,233.990776 245.040188,231.634824 246.709459,229.164424 L257.010447,230.978259 C258.110494,229.135812 259.132988,227.246682 260.074165,225.317647 L252.922729,217.685835 C254.078494,214.936847 255.048282,212.113318 255.825318,209.234071 L266.156424,207.605459 C266.599153,205.505506 266.952282,203.386729 267.216565,201.256659 L257.974212,196.360282 C258.174494,193.385412 258.175247,190.4 257.974965,187.424376 L267.218071,182.529506 C266.954541,180.399435 266.601412,178.280659 266.158682,176.180706 L255.827576,174.550588 C255.051294,171.671341 254.082259,168.847812 252.927247,166.098071 L260.079435,158.467012 C259.139012,156.537976 258.116518,154.6496 257.016471,152.8064 L246.715482,154.618729 C245.046212,152.147576 243.2128,149.791624 241.228047,147.566682 L245.515294,138.026918 C243.998871,136.507482 242.4192,135.0528 240.780047,133.666635 L231.625788,138.7264 C229.244235,136.930635 226.745224,135.298259 224.145318,133.837553 L225.103059,123.422871 C223.175529,122.477929 221.208847,121.615812 219.208282,120.836518 L212.193129,128.594071 C209.357553,127.669459 206.464,126.936094 203.530541,126.4 L201.054118,116.238306 Z M193.0112,174.274259 C202.732424,175.080659 209.969694,183.627294 209.163294,193.347765 C208.357647,203.068988 199.810259,210.306259 190.089788,209.500612 C180.368565,208.694212 173.131294,200.147576 173.937694,190.426353 C174.743341,180.705129 183.290729,173.467859 193.0112,174.274259 L193.0112,174.274259 Z" id="Fill-4" fill="#9B9B9B"></path>
                <path d="M191.887812,-7.75557396e-12 C297.792753,-7.75557396e-12 383.774871,85.9821176 383.774871,191.887059 C383.774871,297.792753 297.792753,383.774871 191.887812,383.774871 C85.9821176,383.774871 8.46966941e-12,297.792753 8.46966941e-12,191.887059 C8.46966941e-12,85.9821176 85.9821176,-7.75557396e-12 191.887812,-7.75557396e-12 L191.887812,-7.75557396e-12 Z M233.951624,20.6878118 C231.798212,20.1539765 229.635012,19.6615529 227.462776,19.2097882 L217.323671,29.824 C214.778729,29.4189176 212.224753,29.0740706 209.663247,28.7902118 L202.7008,15.8682353 C200.487153,15.7274353 198.270494,15.6295529 196.053082,15.5723294 L187.972518,27.8264471 C185.395953,27.8821647 182.820894,27.9988706 180.250353,28.1765647 L171.092329,16.7055059 C168.889224,16.9630118 166.690635,17.2619294 164.498824,17.6022588 L158.735812,31.1017412 C156.210447,31.6167529 153.697882,32.192 151.200376,32.8252235 L140.141176,23.1740235 C138.019388,23.8200471 135.909647,24.5067294 133.813459,25.2333176 L130.553224,39.5444706 C128.161129,40.5029647 125.791624,41.5171765 123.446965,42.5863529 L110.842729,35.0644706 C108.870024,36.0794353 106.916894,37.1320471 104.984094,38.2208 L104.332047,52.8843294 C102.149271,54.2539294 99.9988706,55.6747294 97.8831059,57.1459765 L84.1381647,51.9958588 C82.3785412,53.3466353 80.6445176,54.7305412 78.9368471,56.1475765 L80.9140706,70.6921412 C79.0106353,72.4291765 77.1486118,74.2113882 75.3295059,76.0365176 L60.8854588,73.4230588 C59.3953882,75.0667294 57.9365647,76.7382588 56.5095906,78.4368941 L61.0514824,92.3941647 C59.4890541,94.4436706 57.9751153,96.5293176 56.5109459,98.6503529 L41.8326588,98.6578824 C40.6601035,100.540988 39.5230871,102.445929 38.4223624,104.371953 L45.3835294,117.294682 C44.2121035,119.5904 43.0949647,121.912471 42.0329412,124.260894 L27.5919812,126.889412 C26.7745129,128.951718 25.9959718,131.029082 25.2568094,133.120753 L34.4134776,144.592565 C33.6707765,147.059953 32.9862776,149.545412 32.3606588,152.045176 L18.6210635,157.2096 C18.18496,159.384847 17.7898165,161.568376 17.4360094,163.757929 L28.4940047,173.410635 C28.2038212,175.971388 27.9740235,178.538165 27.8047624,181.109459 L15.2082824,188.644894 C15.1674729,190.863059 15.1685271,193.081224 15.2114447,195.299388 L27.8152282,202.822024 C27.9869741,205.393318 28.2192565,207.960847 28.5118494,210.520847 L17.4631906,220.184094 C17.8191059,222.373647 18.2163576,224.556424 18.6545694,226.730918 L32.3991341,231.882541 C33.0271624,234.382306 33.7140706,236.866259 34.4591059,239.332894 L25.3135059,250.813741 C26.0546259,252.904659 26.8352,254.981271 27.6547012,257.042824 L42.0982212,259.657788 C43.1624282,262.004706 44.2818259,264.326024 45.4554353,266.620235 L38.5067671,279.549741 C39.6093741,281.474259 40.7481976,283.378447 41.9226353,285.2608 L56.6008471,285.254024 C58.0670494,287.373553 59.5830212,289.457694 61.1474071,291.505694 L56.6189929,305.468235 C58.0475482,307.165365 59.5080282,308.835012 60.99968,310.477101 L75.4409412,307.849788 C77.2615529,309.673261 79.1258353,311.453515 81.0307765,313.18912 L79.0678588,327.735567 C80.7770353,329.150344 82.5118118,330.532744 84.2729412,331.882089 L98.0126118,326.718569 C100.129882,328.187407 102.281788,329.606249 104.466071,330.973816 L105.132424,345.636894 C107.065976,346.723915 109.020612,347.774268 110.994071,348.787501 L123.590776,341.253572 C125.936941,342.320791 128.3072,343.332593 130.700047,344.288226 L133.973835,358.596668 C136.070776,359.320847 138.181271,360.005421 140.303812,360.650014 L151.353224,350.987821 C153.852235,351.619087 156.3648,352.191398 158.890165,352.704226 L164.666729,366.198212 C166.859294,366.536358 169.057882,366.833092 171.260988,367.088339 L180.407718,355.608471 C182.979012,355.783454 185.554071,355.897826 188.130635,355.951511 L196.223247,368.197271 C198.440659,368.138541 200.656565,368.037948 202.870965,367.895567 L209.820612,354.966965 C212.381365,354.680019 214.935341,354.332838 217.480282,353.925647 L227.629176,364.529619 C229.800659,364.075821 231.963859,363.581064 234.116518,363.045722 L238.646212,349.083934 C241.114353,348.34432 243.565176,347.546729 245.996424,346.691689 L257.876329,355.313016 C259.931859,354.478833 261.970824,353.605873 263.993976,352.694739 L265.957647,338.148442 C268.254871,336.979953 270.523482,335.757553 272.762729,334.482221 L285.991153,340.843821 C287.864471,339.655981 289.7152,338.432904 291.542588,337.175191 L290.877741,322.512038 C292.929506,320.952245 294.943624,319.344264 296.919341,317.6896 L311.070871,321.587049 C312.701741,320.083727 314.304753,318.549835 315.8784,316.986052 L312.606118,302.677082 C314.345412,300.775906 316.040282,298.834824 317.688471,296.853835 L332.308329,298.161694 C333.645553,296.391529 334.948141,294.595765 336.2176,292.775906 L330.442541,279.281694 C331.815153,277.100424 333.135812,274.887529 334.404518,272.643765 L349.022871,271.320094 C350.022024,269.339859 350.983529,267.340047 351.906635,265.323671 L343.815529,253.077082 C344.776282,250.685741 345.680565,248.272565 346.528376,245.838306 L360.675388,241.926024 C361.304847,239.798965 361.893647,237.659859 362.442541,235.510212 L352.2944,224.905788 C352.813176,222.381176 353.271718,219.845271 353.670776,217.299576 L366.892424,210.923671 C367.131859,208.718306 367.329129,206.508424 367.485741,204.295529 L355.606588,195.672847 C355.666071,193.097035 355.665318,190.519718 355.602824,187.943153 L367.473694,179.309176 C367.315576,177.096282 367.115294,174.887153 366.8736,172.681788 L353.646682,166.318682 C353.244612,163.772988 352.783812,161.237835 352.262776,158.713976 L362.400376,148.099012 C361.849976,145.950118 361.258165,143.811765 360.6272,141.685459 L346.476424,137.786729 C345.626353,135.353224 344.719812,132.9408 343.7568,130.550965 L351.835859,118.296094 C350.910494,116.280471 349.946729,114.282165 348.946071,112.301929 L334.326212,110.992565 C333.056,108.750306 331.733082,106.538918 330.358212,104.359153 L336.120471,90.8589176 C334.849506,89.0405647 333.544659,87.2463059 332.205929,85.4768941 L317.587576,86.7990588 C315.937129,84.8195765 314.240753,82.88 312.4992,80.9803294 L315.757929,66.6684235 C314.182776,65.1060706 312.578259,63.5738353 310.945129,62.0724706 L296.798118,65.9832471 C294.820894,64.3305412 292.805271,62.7245176 290.752,61.1666824 L291.402541,46.5031529 C289.5744,45.2472471 287.722165,44.0252235 285.847341,42.8393412 L272.625694,49.2137412 C270.384941,47.9405176 268.114824,46.7207529 265.816847,45.5544471 L263.838871,31.0098824 C261.814965,30.1003294 259.775247,29.2299294 257.718212,28.3971765 L245.847341,37.0304 C243.415341,36.1773176 240.963765,35.3822118 238.494871,34.6450824 L233.951624,20.6878118 Z" id="Fill-5" fill="#FF58C5"></path>
            </g>
            <g id="Group" transform="translate(365.000000, 123.000000)">
                <g id="Path-12" stroke-linecap="round">
                    <use stroke="#FFFFFF" stroke-width="8" xlink:href="#path-1"></use>
                    <use stroke="#3ACCA1" stroke-width="3" xlink:href="#path-1"></use>
                </g>
                <text id="Estrutura" font-family="AvenirNext-Medium, Avenir Next" font-size="20" font-weight="400" fill="#3ACCA1">
                    <tspan x="47" y="20">Estrutura</tspan>
                </text>
            </g>
            <g id="Group-Copy-4" transform="translate(250.000000, 35.000000)">
                <g id="Path-12" stroke-linecap="round">
                    <use stroke="#FFFFFF" stroke-width="8" xlink:href="#path-2"></use>
                    <use stroke="#9B9B9B" stroke-width="3" xlink:href="#path-2"></use>
                </g>
                <text id="Fatores-pessoais" font-family="AvenirNext-Medium, Avenir Next" font-size="20" font-weight="400" fill="#9B9B9B">
                    <tspan x="78" y="20">Fatores pessoais</tspan>
                </text>
            </g>
            <g id="Group-Copy" transform="translate(8.000000, 99.000000)">
                <g id="Path-12" transform="translate(79.723133, 48.997794) scale(-1, 1) translate(-79.723133, -48.997794) " stroke-linecap="round">
                    <use stroke="#FFFFFF" stroke-width="8" xlink:href="#path-3"></use>
                    <use stroke="#4A90E2" stroke-width="3" xlink:href="#path-3"></use>
                </g>
                <text id="Ambiente" font-family="AvenirNext-Medium, Avenir Next" font-size="20" font-weight="400" fill="#4A90E2">
                    <tspan x="2" y="20">Ambiente</tspan>
                </text>
            </g>
            <g id="Group-Copy-2" transform="translate(77.000000, 369.000000)">
                <g id="Path-12" transform="translate(70.368574, 44.649124) scale(-1, 1) translate(-70.368574, -44.649124) " stroke-linecap="round">
                    <use stroke="#FFFFFF" stroke-width="8" xlink:href="#path-4"></use>
                    <use stroke="#FFE02F" stroke-width="3" xlink:href="#path-4"></use>
                </g>
                <text id="Funções" font-family="AvenirNext-Medium, Avenir Next" font-size="20" font-weight="400" fill="#FFE02F">
                    <tspan x="0" y="82">Funções</tspan>
                </text>
            </g>
            <g id="Group-Copy-3" transform="translate(257.000000, 437.000000)">
                <g id="Path-12" stroke-linecap="round">
                    <use stroke="#FFFFFF" stroke-width="8" xlink:href="#path-5"></use>
                    <use stroke="#FF58C5" stroke-width="3" xlink:href="#path-5"></use>
                </g>
                <text id="Participação" font-family="AvenirNext-Medium, Avenir Next" font-size="20" font-weight="400" fill="#FF58C5">
                    <tspan x="64" y="34">Participação</tspan>
                </text>
            </g>
        </g>
    </g>
</svg>