<?xml version="1.0" encoding="UTF-8" standalone="no"?>
<svg width="8230px" height="8266px" viewBox="0 0 8230 8266" version="1.1" xmlns="http://www.w3.org/2000/svg" xmlns:xlink="http://www.w3.org/1999/xlink" xmlns:sketch="http://www.bohemiancoding.com/sketch/ns">
    <!-- Generator: Sketch 3.2.2 (9983) - http://www.bohemiancoding.com/sketch -->
    <title>Artboard</title>
    <desc>Created with Sketch.</desc>
    <defs></defs>
    <g id="Page-1" stroke="none" stroke-width="1" fill="none" fill-rule="evenodd" sketch:type="MSPage">
        <g id="Artboard" sketch:type="MSArtboardGroup">
            <rect id="Rectangle-1" opacity="0" fill="#D0011B" sketch:type="MSShapeGroup" x="0" y="0" width="8230" height="8266"></rect>
            <g id="Group" sketch:type="MSLayerGroup" transform="translate(-742.000000, -202.000000)" fill="#000000">
                <path d="M660.411642,824.798743 L795.608398,1236.09749 L367.521951,1236.09749 L232.325195,824.798743 L660.411642,824.798743 Z" id="Rectangle-1" sketch:type="MSShapeGroup" transform="translate(513.966797, 1030.448115) scale(-1, 1) translate(-513.966797, -1030.448115) "></path>
                <path d="M926.694845,0.798743255 L1061.8916,412.097487 L633.805155,412.097487 L498.608398,0.798743255 L926.694845,0.798743255 Z" id="Rectangle-1" sketch:type="MSShapeGroup" transform="translate(780.250000, 206.448115) scale(-1, 1) translate(-780.250000, -206.448115) "></path>
                <path d="M684.694845,2064.29874 L819.891602,2475.59749 L391.805155,2475.59749 L256.608398,2064.29874 L684.694845,2064.29874 Z" id="Rectangle-1" sketch:type="MSShapeGroup" transform="translate(538.250000, 2269.948115) scale(-1, 1) translate(-538.250000, -2269.948115) "></path>
                <path d="M958.836447,1238.29874 L1094.0332,1649.59749 L665.946756,1649.59749 L530.75,1238.29874 L958.836447,1238.29874 Z" id="Rectangle-1" sketch:type="MSShapeGroup" transform="translate(812.391602, 1443.948115) scale(-1, 1) translate(-812.391602, -1443.948115) "></path>
                <path d="M1222.19485,414.298743 L1357.3916,825.597487 L929.305155,825.597487 L794.108398,414.298743 L1222.19485,414.298743 Z" id="Rectangle-1" sketch:type="MSShapeGroup" transform="translate(1075.750000, 619.948115) scale(-1, 1) translate(-1075.750000, -619.948115) "></path>
                <path d="M1254.69485,1652.79874 L1389.8916,2064.09749 L961.805155,2064.09749 L826.608398,1652.79874 L1254.69485,1652.79874 Z" id="Rectangle-1" sketch:type="MSShapeGroup" transform="translate(1108.250000, 1858.448115) scale(-1, 1) translate(-1108.250000, -1858.448115) "></path>
                <path d="M981.194845,2477.79874 L1116.3916,2889.09749 L688.305155,2889.09749 L553.108398,2477.79874 L981.194845,2477.79874 Z" id="Rectangle-1" sketch:type="MSShapeGroup" transform="translate(834.750000, 2683.448115) scale(-1, 1) translate(-834.750000, -2683.448115) "></path>
                <path d="M710.194845,3302.79874 L845.391602,3714.09749 L417.305155,3714.09749 L282.108398,3302.79874 L710.194845,3302.79874 Z" id="Rectangle-1" sketch:type="MSShapeGroup" transform="translate(563.750000, 3508.448115) scale(-1, 1) translate(-563.750000, -3508.448115) "></path>
                <path d="M1526.41164,824.798743 L1661.6084,1236.09749 L1233.52195,1236.09749 L1098.3252,824.798743 L1526.41164,824.798743 Z" id="Rectangle-1" sketch:type="MSShapeGroup" transform="translate(1379.966797, 1030.448115) scale(-1, 1) translate(-1379.966797, -1030.448115) "></path>
                <path d="M1792.69485,0.798743255 L1927.8916,412.097487 L1499.80515,412.097487 L1364.6084,0.798743255 L1792.69485,0.798743255 Z" id="Rectangle-1" sketch:type="MSShapeGroup" transform="translate(1646.250000, 206.448115) scale(-1, 1) translate(-1646.250000, -206.448115) "></path>
                <path d="M1550.69485,2064.29874 L1685.8916,2475.59749 L1257.80515,2475.59749 L1122.6084,2064.29874 L1550.69485,2064.29874 Z" id="Rectangle-1" sketch:type="MSShapeGroup" transform="translate(1404.250000, 2269.948115) scale(-1, 1) translate(-1404.250000, -2269.948115) "></path>
                <path d="M1279.69485,2890.29874 L1414.8916,3301.59749 L986.805155,3301.59749 L851.608398,2890.29874 L1279.69485,2890.29874 Z" id="Rectangle-1" sketch:type="MSShapeGroup" transform="translate(1133.250000, 3095.948115) scale(-1, 1) translate(-1133.250000, -3095.948115) "></path>
                <path d="M1009.19485,3715.29874 L1144.3916,4126.59749 L716.305155,4126.59749 L581.108398,3715.29874 L1009.19485,3715.29874 Z" id="Rectangle-1" sketch:type="MSShapeGroup" transform="translate(862.750000, 3920.948115) scale(-1, 1) translate(-862.750000, -3920.948115) "></path>
                <path d="M1824.83645,1238.29874 L1960.0332,1649.59749 L1531.94676,1649.59749 L1396.75,1238.29874 L1824.83645,1238.29874 Z" id="Rectangle-1" sketch:type="MSShapeGroup" transform="translate(1678.391602, 1443.948115) scale(-1, 1) translate(-1678.391602, -1443.948115) "></path>
                <path d="M2088.19485,414.298743 L2223.3916,825.597487 L1795.30515,825.597487 L1660.1084,414.298743 L2088.19485,414.298743 Z" id="Rectangle-1" sketch:type="MSShapeGroup" transform="translate(1941.750000, 619.948115) scale(-1, 1) translate(-1941.750000, -619.948115) "></path>
                <path d="M2120.69485,1652.79874 L2255.8916,2064.09749 L1827.80515,2064.09749 L1692.6084,1652.79874 L2120.69485,1652.79874 Z" id="Rectangle-1" sketch:type="MSShapeGroup" transform="translate(1974.250000, 1858.448115) scale(-1, 1) translate(-1974.250000, -1858.448115) "></path>
                <path d="M1847.19485,2477.79874 L1982.3916,2889.09749 L1554.30515,2889.09749 L1419.1084,2477.79874 L1847.19485,2477.79874 Z" id="Rectangle-1" sketch:type="MSShapeGroup" transform="translate(1700.750000, 2683.448115) scale(-1, 1) translate(-1700.750000, -2683.448115) "></path>
                <path d="M1576.19485,3302.79874 L1711.3916,3714.09749 L1283.30515,3714.09749 L1148.1084,3302.79874 L1576.19485,3302.79874 Z" id="Rectangle-1" sketch:type="MSShapeGroup" transform="translate(1429.750000, 3508.448115) scale(-1, 1) translate(-1429.750000, -3508.448115) "></path>
                <path d="M2392.41164,824.798743 L2527.6084,1236.09749 L2099.52195,1236.09749 L1964.3252,824.798743 L2392.41164,824.798743 Z" id="Rectangle-1" sketch:type="MSShapeGroup" transform="translate(2245.966797, 1030.448115) scale(-1, 1) translate(-2245.966797, -1030.448115) "></path>
                <path d="M2658.69485,0.798743255 L2793.8916,412.097487 L2365.80515,412.097487 L2230.6084,0.798743255 L2658.69485,0.798743255 Z" id="Rectangle-1" sketch:type="MSShapeGroup" transform="translate(2512.250000, 206.448115) scale(-1, 1) translate(-2512.250000, -206.448115) "></path>
                <path d="M2416.69485,2064.29874 L2551.8916,2475.59749 L2123.80515,2475.59749 L1988.6084,2064.29874 L2416.69485,2064.29874 Z" id="Rectangle-1" sketch:type="MSShapeGroup" transform="translate(2270.250000, 2269.948115) scale(-1, 1) translate(-2270.250000, -2269.948115) "></path>
                <path d="M2145.69485,2890.29874 L2280.8916,3301.59749 L1852.80515,3301.59749 L1717.6084,2890.29874 L2145.69485,2890.29874 Z" id="Rectangle-1" sketch:type="MSShapeGroup" transform="translate(1999.250000, 3095.948115) scale(-1, 1) translate(-1999.250000, -3095.948115) "></path>
                <path d="M1875.19485,3715.29874 L2010.3916,4126.59749 L1582.30515,4126.59749 L1447.1084,3715.29874 L1875.19485,3715.29874 Z" id="Rectangle-1" sketch:type="MSShapeGroup" transform="translate(1728.750000, 3920.948115) scale(-1, 1) translate(-1728.750000, -3920.948115) "></path>
                <path d="M2690.83645,1238.29874 L2826.0332,1649.59749 L2397.94676,1649.59749 L2262.75,1238.29874 L2690.83645,1238.29874 Z" id="Rectangle-1" sketch:type="MSShapeGroup" transform="translate(2544.391602, 1443.948115) scale(-1, 1) translate(-2544.391602, -1443.948115) "></path>
                <path d="M2954.19485,414.298743 L3089.3916,825.597487 L2661.30515,825.597487 L2526.1084,414.298743 L2954.19485,414.298743 Z" id="Rectangle-1" sketch:type="MSShapeGroup" transform="translate(2807.750000, 619.948115) scale(-1, 1) translate(-2807.750000, -619.948115) "></path>
                <path d="M2986.69485,1652.79874 L3121.8916,2064.09749 L2693.80515,2064.09749 L2558.6084,1652.79874 L2986.69485,1652.79874 Z" id="Rectangle-1" sketch:type="MSShapeGroup" transform="translate(2840.250000, 1858.448115) scale(-1, 1) translate(-2840.250000, -1858.448115) "></path>
                <path d="M2713.19485,2477.79874 L2848.3916,2889.09749 L2420.30515,2889.09749 L2285.1084,2477.79874 L2713.19485,2477.79874 Z" id="Rectangle-1" sketch:type="MSShapeGroup" transform="translate(2566.750000, 2683.448115) scale(-1, 1) translate(-2566.750000, -2683.448115) "></path>
                <path d="M2442.19485,3302.79874 L2577.3916,3714.09749 L2149.30515,3714.09749 L2014.1084,3302.79874 L2442.19485,3302.79874 Z" id="Rectangle-1" sketch:type="MSShapeGroup" transform="translate(2295.750000, 3508.448115) scale(-1, 1) translate(-2295.750000, -3508.448115) "></path>
                <path d="M3258.41164,824.798743 L3393.6084,1236.09749 L2965.52195,1236.09749 L2830.3252,824.798743 L3258.41164,824.798743 Z" id="Rectangle-1" sketch:type="MSShapeGroup" transform="translate(3111.966797, 1030.448115) scale(-1, 1) translate(-3111.966797, -1030.448115) "></path>
                <path d="M3524.69485,0.798743255 L3659.8916,412.097487 L3231.80515,412.097487 L3096.6084,0.798743255 L3524.69485,0.798743255 Z" id="Rectangle-1" sketch:type="MSShapeGroup" transform="translate(3378.250000, 206.448115) scale(-1, 1) translate(-3378.250000, -206.448115) "></path>
                <path d="M3282.69485,2064.29874 L3417.8916,2475.59749 L2989.80515,2475.59749 L2854.6084,2064.29874 L3282.69485,2064.29874 Z" id="Rectangle-1" sketch:type="MSShapeGroup" transform="translate(3136.250000, 2269.948115) scale(-1, 1) translate(-3136.250000, -2269.948115) "></path>
                <path d="M3011.69485,2890.29874 L3146.8916,3301.59749 L2718.80515,3301.59749 L2583.6084,2890.29874 L3011.69485,2890.29874 Z" id="Rectangle-1" sketch:type="MSShapeGroup" transform="translate(2865.250000, 3095.948115) scale(-1, 1) translate(-2865.250000, -3095.948115) "></path>
                <path d="M2741.19485,3715.29874 L2876.3916,4126.59749 L2448.30515,4126.59749 L2313.1084,3715.29874 L2741.19485,3715.29874 Z" id="Rectangle-1" sketch:type="MSShapeGroup" transform="translate(2594.750000, 3920.948115) scale(-1, 1) translate(-2594.750000, -3920.948115) "></path>
                <path d="M3556.83645,1238.29874 L3692.0332,1649.59749 L3263.94676,1649.59749 L3128.75,1238.29874 L3556.83645,1238.29874 Z" id="Rectangle-1" sketch:type="MSShapeGroup" transform="translate(3410.391602, 1443.948115) scale(-1, 1) translate(-3410.391602, -1443.948115) "></path>
                <path d="M3820.19485,414.298743 L3955.3916,825.597487 L3527.30515,825.597487 L3392.1084,414.298743 L3820.19485,414.298743 Z" id="Rectangle-1" sketch:type="MSShapeGroup" transform="translate(3673.750000, 619.948115) scale(-1, 1) translate(-3673.750000, -619.948115) "></path>
                <path d="M3852.69485,1652.79874 L3987.8916,2064.09749 L3559.80515,2064.09749 L3424.6084,1652.79874 L3852.69485,1652.79874 Z" id="Rectangle-1" sketch:type="MSShapeGroup" transform="translate(3706.250000, 1858.448115) scale(-1, 1) translate(-3706.250000, -1858.448115) "></path>
                <path d="M3579.19485,2477.79874 L3714.3916,2889.09749 L3286.30515,2889.09749 L3151.1084,2477.79874 L3579.19485,2477.79874 Z" id="Rectangle-1" sketch:type="MSShapeGroup" transform="translate(3432.750000, 2683.448115) scale(-1, 1) translate(-3432.750000, -2683.448115) "></path>
                <path d="M3308.19485,3302.79874 L3443.3916,3714.09749 L3015.30515,3714.09749 L2880.1084,3302.79874 L3308.19485,3302.79874 Z" id="Rectangle-1" sketch:type="MSShapeGroup" transform="translate(3161.750000, 3508.448115) scale(-1, 1) translate(-3161.750000, -3508.448115) "></path>
                <path d="M4124.41164,824.798743 L4259.6084,1236.09749 L3831.52195,1236.09749 L3696.3252,824.798743 L4124.41164,824.798743 Z" id="Rectangle-1" sketch:type="MSShapeGroup" transform="translate(3977.966797, 1030.448115) scale(-1, 1) translate(-3977.966797, -1030.448115) "></path>
                <path d="M4390.69485,0.798743255 L4525.8916,412.097487 L4097.80515,412.097487 L3962.6084,0.798743255 L4390.69485,0.798743255 Z" id="Rectangle-1" sketch:type="MSShapeGroup" transform="translate(4244.250000, 206.448115) scale(-1, 1) translate(-4244.250000, -206.448115) "></path>
                <path d="M4148.69485,2064.29874 L4283.8916,2475.59749 L3855.80515,2475.59749 L3720.6084,2064.29874 L4148.69485,2064.29874 Z" id="Rectangle-1" sketch:type="MSShapeGroup" transform="translate(4002.250000, 2269.948115) scale(-1, 1) translate(-4002.250000, -2269.948115) "></path>
                <path d="M3584.80515,2890.29874 L3449.6084,3301.59749 L3877.69485,3301.59749 L4012.8916,2890.29874 L3584.80515,2890.29874 Z" id="Rectangle-1" sketch:type="MSShapeGroup"></path>
                <path d="M3607.19485,3715.29874 L3742.3916,4126.59749 L3314.30515,4126.59749 L3179.1084,3715.29874 L3607.19485,3715.29874 Z" id="Rectangle-1" sketch:type="MSShapeGroup" transform="translate(3460.750000, 3920.948115) scale(-1, 1) translate(-3460.750000, -3920.948115) "></path>
                <path d="M4422.83645,1238.29874 L4558.0332,1649.59749 L4129.94676,1649.59749 L3994.75,1238.29874 L4422.83645,1238.29874 Z" id="Rectangle-1" sketch:type="MSShapeGroup" transform="translate(4276.391602, 1443.948115) scale(-1, 1) translate(-4276.391602, -1443.948115) "></path>
                <path d="M4686.19485,414.298743 L4821.3916,825.597487 L4393.30515,825.597487 L4258.1084,414.298743 L4686.19485,414.298743 Z" id="Rectangle-1" sketch:type="MSShapeGroup" transform="translate(4539.750000, 619.948115) scale(-1, 1) translate(-4539.750000, -619.948115) "></path>
                <path d="M4718.69485,1652.79874 L4853.8916,2064.09749 L4425.80515,2064.09749 L4290.6084,1652.79874 L4718.69485,1652.79874 Z" id="Rectangle-1" sketch:type="MSShapeGroup" transform="translate(4572.250000, 1858.448115) scale(-1, 1) translate(-4572.250000, -1858.448115) "></path>
                <path d="M4445.19485,2477.79874 L4580.3916,2889.09749 L4152.30515,2889.09749 L4017.1084,2477.79874 L4445.19485,2477.79874 Z" id="Rectangle-1" sketch:type="MSShapeGroup" transform="translate(4298.750000, 2683.448115) scale(-1, 1) translate(-4298.750000, -2683.448115) "></path>
                <path d="M4174.19485,3302.79874 L4309.3916,3714.09749 L3881.30515,3714.09749 L3746.1084,3302.79874 L4174.19485,3302.79874 Z" id="Rectangle-1" sketch:type="MSShapeGroup" transform="translate(4027.750000, 3508.448115) scale(-1, 1) translate(-4027.750000, -3508.448115) "></path>
                <path d="M4990.41164,824.798743 L5125.6084,1236.09749 L4697.52195,1236.09749 L4562.3252,824.798743 L4990.41164,824.798743 Z" id="Rectangle-1" sketch:type="MSShapeGroup" transform="translate(4843.966797, 1030.448115) scale(-1, 1) translate(-4843.966797, -1030.448115) "></path>
                <path d="M726.694845,4539.79874 L861.891602,4951.09749 L433.805155,4951.09749 L298.608398,4539.79874 L726.694845,4539.79874 Z" id="Rectangle-1" sketch:type="MSShapeGroup" transform="translate(580.250000, 4745.448115) scale(-1, 1) translate(-580.250000, -4745.448115) "></path>
                <path d="M758.836447,5777.29874 L894.033203,6188.59749 L465.946756,6188.59749 L330.75,5777.29874 L758.836447,5777.29874 Z" id="Rectangle-1" sketch:type="MSShapeGroup" transform="translate(612.391602, 5982.948115) scale(-1, 1) translate(-612.391602, -5982.948115) "></path>
                <path d="M1022.19485,4953.29874 L1157.3916,5364.59749 L729.305155,5364.59749 L594.108398,4953.29874 L1022.19485,4953.29874 Z" id="Rectangle-1" sketch:type="MSShapeGroup" transform="translate(875.750000, 5158.948115) scale(-1, 1) translate(-875.750000, -5158.948115) "></path>
                <path d="M1054.69485,6191.79874 L1189.8916,6603.09749 L761.805155,6603.09749 L626.608398,6191.79874 L1054.69485,6191.79874 Z" id="Rectangle-1" sketch:type="MSShapeGroup" transform="translate(908.250000, 6397.448115) scale(-1, 1) translate(-908.250000, -6397.448115) "></path>
                <path d="M781.194845,7016.79874 L916.391602,7428.09749 L488.305155,7428.09749 L353.108398,7016.79874 L781.194845,7016.79874 Z" id="Rectangle-1" sketch:type="MSShapeGroup" transform="translate(634.750000, 7222.448115) scale(-1, 1) translate(-634.750000, -7222.448115) "></path>
                <path d="M1326.41164,5363.79874 L1461.6084,5775.09749 L1033.52195,5775.09749 L898.325195,5363.79874 L1326.41164,5363.79874 Z" id="Rectangle-1" sketch:type="MSShapeGroup" transform="translate(1179.966797, 5569.448115) scale(-1, 1) translate(-1179.966797, -5569.448115) "></path>
                <path d="M1592.69485,4539.79874 L1727.8916,4951.09749 L1299.80515,4951.09749 L1164.6084,4539.79874 L1592.69485,4539.79874 Z" id="Rectangle-1" sketch:type="MSShapeGroup" transform="translate(1446.250000, 4745.448115) scale(-1, 1) translate(-1446.250000, -4745.448115) "></path>
                <path d="M1294.19485,4134.29874 L1429.3916,4545.59749 L1001.30515,4545.59749 L866.108398,4134.29874 L1294.19485,4134.29874 Z" id="Rectangle-1" sketch:type="MSShapeGroup" transform="translate(1147.750000, 4339.948115) scale(-1, 1) translate(-1147.750000, -4339.948115) "></path>
                <path d="M1350.69485,6603.29874 L1485.8916,7014.59749 L1057.80515,7014.59749 L922.608398,6603.29874 L1350.69485,6603.29874 Z" id="Rectangle-1" sketch:type="MSShapeGroup" transform="translate(1204.250000, 6808.948115) scale(-1, 1) translate(-1204.250000, -6808.948115) "></path>
                <path d="M1079.69485,7429.29874 L1214.8916,7840.59749 L786.805155,7840.59749 L651.608398,7429.29874 L1079.69485,7429.29874 Z" id="Rectangle-1" sketch:type="MSShapeGroup" transform="translate(933.250000, 7634.948115) scale(-1, 1) translate(-933.250000, -7634.948115) "></path>
                <path d="M809.194845,8254.29874 L944.391602,8665.59749 L516.305155,8665.59749 L381.108398,8254.29874 L809.194845,8254.29874 Z" id="Rectangle-1" sketch:type="MSShapeGroup" transform="translate(662.750000, 8459.948115) scale(-1, 1) translate(-662.750000, -8459.948115) "></path>
                <path d="M1624.83645,5777.29874 L1760.0332,6188.59749 L1331.94676,6188.59749 L1196.75,5777.29874 L1624.83645,5777.29874 Z" id="Rectangle-1" sketch:type="MSShapeGroup" transform="translate(1478.391602, 5982.948115) scale(-1, 1) translate(-1478.391602, -5982.948115) "></path>
                <path d="M1888.19485,4953.29874 L2023.3916,5364.59749 L1595.30515,5364.59749 L1460.1084,4953.29874 L1888.19485,4953.29874 Z" id="Rectangle-1" sketch:type="MSShapeGroup" transform="translate(1741.750000, 5158.948115) scale(-1, 1) translate(-1741.750000, -5158.948115) "></path>
                <path d="M1920.69485,6191.79874 L2055.8916,6603.09749 L1627.80515,6603.09749 L1492.6084,6191.79874 L1920.69485,6191.79874 Z" id="Rectangle-1" sketch:type="MSShapeGroup" transform="translate(1774.250000, 6397.448115) scale(-1, 1) translate(-1774.250000, -6397.448115) "></path>
                <path d="M1647.19485,7016.79874 L1782.3916,7428.09749 L1354.30515,7428.09749 L1219.1084,7016.79874 L1647.19485,7016.79874 Z" id="Rectangle-1" sketch:type="MSShapeGroup" transform="translate(1500.750000, 7222.448115) scale(-1, 1) translate(-1500.750000, -7222.448115) "></path>
                <path d="M1376.19485,7841.79874 L1511.3916,8253.09749 L1083.30515,8253.09749 L948.108398,7841.79874 L1376.19485,7841.79874 Z" id="Rectangle-1" sketch:type="MSShapeGroup" transform="translate(1229.750000, 8047.448115) scale(-1, 1) translate(-1229.750000, -8047.448115) "></path>
                <path d="M2192.41164,5363.79874 L2327.6084,5775.09749 L1899.52195,5775.09749 L1764.3252,5363.79874 L2192.41164,5363.79874 Z" id="Rectangle-1" sketch:type="MSShapeGroup" transform="translate(2045.966797, 5569.448115) scale(-1, 1) translate(-2045.966797, -5569.448115) "></path>
                <path d="M2458.69485,4539.79874 L2593.8916,4951.09749 L2165.80515,4951.09749 L2030.6084,4539.79874 L2458.69485,4539.79874 Z" id="Rectangle-1" sketch:type="MSShapeGroup" transform="translate(2312.250000, 4745.448115) scale(-1, 1) translate(-2312.250000, -4745.448115) "></path>
                <path d="M2160.19485,4134.29874 L2295.3916,4545.59749 L1867.30515,4545.59749 L1732.1084,4134.29874 L2160.19485,4134.29874 Z" id="Rectangle-1" sketch:type="MSShapeGroup" transform="translate(2013.750000, 4339.948115) scale(-1, 1) translate(-2013.750000, -4339.948115) "></path>
                <path d="M2216.69485,6603.29874 L2351.8916,7014.59749 L1923.80515,7014.59749 L1788.6084,6603.29874 L2216.69485,6603.29874 Z" id="Rectangle-1" sketch:type="MSShapeGroup" transform="translate(2070.250000, 6808.948115) scale(-1, 1) translate(-2070.250000, -6808.948115) "></path>
                <path d="M1945.69485,7429.29874 L2080.8916,7840.59749 L1652.80515,7840.59749 L1517.6084,7429.29874 L1945.69485,7429.29874 Z" id="Rectangle-1" sketch:type="MSShapeGroup" transform="translate(1799.250000, 7634.948115) scale(-1, 1) translate(-1799.250000, -7634.948115) "></path>
                <path d="M1675.19485,8254.29874 L1810.3916,8665.59749 L1382.30515,8665.59749 L1247.1084,8254.29874 L1675.19485,8254.29874 Z" id="Rectangle-1" sketch:type="MSShapeGroup" transform="translate(1528.750000, 8459.948115) scale(-1, 1) translate(-1528.750000, -8459.948115) "></path>
                <path d="M2490.83645,5777.29874 L2626.0332,6188.59749 L2197.94676,6188.59749 L2062.75,5777.29874 L2490.83645,5777.29874 Z" id="Rectangle-1" sketch:type="MSShapeGroup" transform="translate(2344.391602, 5982.948115) scale(-1, 1) translate(-2344.391602, -5982.948115) "></path>
                <path d="M2754.19485,4953.29874 L2889.3916,5364.59749 L2461.30515,5364.59749 L2326.1084,4953.29874 L2754.19485,4953.29874 Z" id="Rectangle-1" sketch:type="MSShapeGroup" transform="translate(2607.750000, 5158.948115) scale(-1, 1) translate(-2607.750000, -5158.948115) "></path>
                <path d="M2786.69485,6191.79874 L2921.8916,6603.09749 L2493.80515,6603.09749 L2358.6084,6191.79874 L2786.69485,6191.79874 Z" id="Rectangle-1" sketch:type="MSShapeGroup" transform="translate(2640.250000, 6397.448115) scale(-1, 1) translate(-2640.250000, -6397.448115) "></path>
                <path d="M2513.19485,7016.79874 L2648.3916,7428.09749 L2220.30515,7428.09749 L2085.1084,7016.79874 L2513.19485,7016.79874 Z" id="Rectangle-1" sketch:type="MSShapeGroup" transform="translate(2366.750000, 7222.448115) scale(-1, 1) translate(-2366.750000, -7222.448115) "></path>
                <path d="M2242.19485,7841.79874 L2377.3916,8253.09749 L1949.30515,8253.09749 L1814.1084,7841.79874 L2242.19485,7841.79874 Z" id="Rectangle-1" sketch:type="MSShapeGroup" transform="translate(2095.750000, 8047.448115) scale(-1, 1) translate(-2095.750000, -8047.448115) "></path>
                <path d="M3058.41164,5363.79874 L3193.6084,5775.09749 L2765.52195,5775.09749 L2630.3252,5363.79874 L3058.41164,5363.79874 Z" id="Rectangle-1" sketch:type="MSShapeGroup" transform="translate(2911.966797, 5569.448115) scale(-1, 1) translate(-2911.966797, -5569.448115) "></path>
                <path d="M3324.69485,4539.79874 L3459.8916,4951.09749 L3031.80515,4951.09749 L2896.6084,4539.79874 L3324.69485,4539.79874 Z" id="Rectangle-1" sketch:type="MSShapeGroup" transform="translate(3178.250000, 4745.448115) scale(-1, 1) translate(-3178.250000, -4745.448115) "></path>
                <path d="M3026.19485,4134.29874 L3161.3916,4545.59749 L2733.30515,4545.59749 L2598.1084,4134.29874 L3026.19485,4134.29874 Z" id="Rectangle-1" sketch:type="MSShapeGroup" transform="translate(2879.750000, 4339.948115) scale(-1, 1) translate(-2879.750000, -4339.948115) "></path>
                <path d="M3082.69485,6603.29874 L3217.8916,7014.59749 L2789.80515,7014.59749 L2654.6084,6603.29874 L3082.69485,6603.29874 Z" id="Rectangle-1" sketch:type="MSShapeGroup" transform="translate(2936.250000, 6808.948115) scale(-1, 1) translate(-2936.250000, -6808.948115) "></path>
                <path d="M2811.69485,7429.29874 L2946.8916,7840.59749 L2518.80515,7840.59749 L2383.6084,7429.29874 L2811.69485,7429.29874 Z" id="Rectangle-1" sketch:type="MSShapeGroup" transform="translate(2665.250000, 7634.948115) scale(-1, 1) translate(-2665.250000, -7634.948115) "></path>
                <path d="M2541.19485,8254.29874 L2676.3916,8665.59749 L2248.30515,8665.59749 L2113.1084,8254.29874 L2541.19485,8254.29874 Z" id="Rectangle-1" sketch:type="MSShapeGroup" transform="translate(2394.750000, 8459.948115) scale(-1, 1) translate(-2394.750000, -8459.948115) "></path>
                <path d="M3356.83645,5777.29874 L3492.0332,6188.59749 L3063.94676,6188.59749 L2928.75,5777.29874 L3356.83645,5777.29874 Z" id="Rectangle-1" sketch:type="MSShapeGroup" transform="translate(3210.391602, 5982.948115) scale(-1, 1) translate(-3210.391602, -5982.948115) "></path>
                <path d="M3620.19485,4953.29874 L3755.3916,5364.59749 L3327.30515,5364.59749 L3192.1084,4953.29874 L3620.19485,4953.29874 Z" id="Rectangle-1" sketch:type="MSShapeGroup" transform="translate(3473.750000, 5158.948115) scale(-1, 1) translate(-3473.750000, -5158.948115) "></path>
                <path d="M3652.69485,6191.79874 L3787.8916,6603.09749 L3359.80515,6603.09749 L3224.6084,6191.79874 L3652.69485,6191.79874 Z" id="Rectangle-1" sketch:type="MSShapeGroup" transform="translate(3506.250000, 6397.448115) scale(-1, 1) translate(-3506.250000, -6397.448115) "></path>
                <path d="M3379.19485,7016.79874 L3514.3916,7428.09749 L3086.30515,7428.09749 L2951.1084,7016.79874 L3379.19485,7016.79874 Z" id="Rectangle-1" sketch:type="MSShapeGroup" transform="translate(3232.750000, 7222.448115) scale(-1, 1) translate(-3232.750000, -7222.448115) "></path>
                <path d="M3108.19485,7841.79874 L3243.3916,8253.09749 L2815.30515,8253.09749 L2680.1084,7841.79874 L3108.19485,7841.79874 Z" id="Rectangle-1" sketch:type="MSShapeGroup" transform="translate(2961.750000, 8047.448115) scale(-1, 1) translate(-2961.750000, -8047.448115) "></path>
                <path d="M3924.41164,5363.79874 L4059.6084,5775.09749 L3631.52195,5775.09749 L3496.3252,5363.79874 L3924.41164,5363.79874 Z" id="Rectangle-1" sketch:type="MSShapeGroup" transform="translate(3777.966797, 5569.448115) scale(-1, 1) translate(-3777.966797, -5569.448115) "></path>
                <path d="M4190.69485,4539.79874 L4325.8916,4951.09749 L3897.80515,4951.09749 L3762.6084,4539.79874 L4190.69485,4539.79874 Z" id="Rectangle-1" sketch:type="MSShapeGroup" transform="translate(4044.250000, 4745.448115) scale(-1, 1) translate(-4044.250000, -4745.448115) "></path>
                <path d="M3892.19485,4134.29874 L4027.3916,4545.59749 L3599.30515,4545.59749 L3464.1084,4134.29874 L3892.19485,4134.29874 Z" id="Rectangle-1" sketch:type="MSShapeGroup" transform="translate(3745.750000, 4339.948115) scale(-1, 1) translate(-3745.750000, -4339.948115) "></path>
                <path d="M3948.69485,6603.29874 L4083.8916,7014.59749 L3655.80515,7014.59749 L3520.6084,6603.29874 L3948.69485,6603.29874 Z" id="Rectangle-1" sketch:type="MSShapeGroup" transform="translate(3802.250000, 6808.948115) scale(-1, 1) translate(-3802.250000, -6808.948115) "></path>
                <path d="M3677.69485,7429.29874 L3812.8916,7840.59749 L3384.80515,7840.59749 L3249.6084,7429.29874 L3677.69485,7429.29874 Z" id="Rectangle-1" sketch:type="MSShapeGroup" transform="translate(3531.250000, 7634.948115) scale(-1, 1) translate(-3531.250000, -7634.948115) "></path>
                <path d="M3407.19485,8254.29874 L3542.3916,8665.59749 L3114.30515,8665.59749 L2979.1084,8254.29874 L3407.19485,8254.29874 Z" id="Rectangle-1" sketch:type="MSShapeGroup" transform="translate(3260.750000, 8459.948115) scale(-1, 1) translate(-3260.750000, -8459.948115) "></path>
                <path d="M4222.83645,5777.29874 L4358.0332,6188.59749 L3929.94676,6188.59749 L3794.75,5777.29874 L4222.83645,5777.29874 Z" id="Rectangle-1" sketch:type="MSShapeGroup" transform="translate(4076.391602, 5982.948115) scale(-1, 1) translate(-4076.391602, -5982.948115) "></path>
                <path d="M4486.19485,4953.29874 L4621.3916,5364.59749 L4193.30515,5364.59749 L4058.1084,4953.29874 L4486.19485,4953.29874 Z" id="Rectangle-1" sketch:type="MSShapeGroup" transform="translate(4339.750000, 5158.948115) scale(-1, 1) translate(-4339.750000, -5158.948115) "></path>
                <path d="M4518.69485,6191.79874 L4653.8916,6603.09749 L4225.80515,6603.09749 L4090.6084,6191.79874 L4518.69485,6191.79874 Z" id="Rectangle-1" sketch:type="MSShapeGroup" transform="translate(4372.250000, 6397.448115) scale(-1, 1) translate(-4372.250000, -6397.448115) "></path>
                <path d="M4245.19485,7016.79874 L4380.3916,7428.09749 L3952.30515,7428.09749 L3817.1084,7016.79874 L4245.19485,7016.79874 Z" id="Rectangle-1" sketch:type="MSShapeGroup" transform="translate(4098.750000, 7222.448115) scale(-1, 1) translate(-4098.750000, -7222.448115) "></path>
                <path d="M3974.19485,7841.79874 L4109.3916,8253.09749 L3681.30515,8253.09749 L3546.1084,7841.79874 L3974.19485,7841.79874 Z" id="Rectangle-1" sketch:type="MSShapeGroup" transform="translate(3827.750000, 8047.448115) scale(-1, 1) translate(-3827.750000, -8047.448115) "></path>
                <path d="M4790.41164,5363.79874 L4925.6084,5775.09749 L4497.52195,5775.09749 L4362.3252,5363.79874 L4790.41164,5363.79874 Z" id="Rectangle-1" sketch:type="MSShapeGroup" transform="translate(4643.966797, 5569.448115) scale(-1, 1) translate(-4643.966797, -5569.448115) "></path>
                <path d="M5056.69485,4539.79874 L5191.8916,4951.09749 L4763.80515,4951.09749 L4628.6084,4539.79874 L5056.69485,4539.79874 Z" id="Rectangle-1" sketch:type="MSShapeGroup" transform="translate(4910.250000, 4745.448115) scale(-1, 1) translate(-4910.250000, -4745.448115) "></path>
                <path d="M4758.19485,4134.29874 L4893.3916,4545.59749 L4465.30515,4545.59749 L4330.1084,4134.29874 L4758.19485,4134.29874 Z" id="Rectangle-1" sketch:type="MSShapeGroup" transform="translate(4611.750000, 4339.948115) scale(-1, 1) translate(-4611.750000, -4339.948115) "></path>
                <path d="M4814.69485,6603.29874 L4949.8916,7014.59749 L4521.80515,7014.59749 L4386.6084,6603.29874 L4814.69485,6603.29874 Z" id="Rectangle-1" sketch:type="MSShapeGroup" transform="translate(4668.250000, 6808.948115) scale(-1, 1) translate(-4668.250000, -6808.948115) "></path>
                <path d="M4250.80515,7429.29874 L4115.6084,7840.59749 L4543.69485,7840.59749 L4678.8916,7429.29874 L4250.80515,7429.29874 Z" id="Rectangle-1" sketch:type="MSShapeGroup"></path>
                <path d="M4273.19485,8254.29874 L4408.3916,8665.59749 L3980.30515,8665.59749 L3845.1084,8254.29874 L4273.19485,8254.29874 Z" id="Rectangle-1" sketch:type="MSShapeGroup" transform="translate(4126.750000, 8459.948115) scale(-1, 1) translate(-4126.750000, -8459.948115) "></path>
                <path d="M5088.83645,5777.29874 L5224.0332,6188.59749 L4795.94676,6188.59749 L4660.75,5777.29874 L5088.83645,5777.29874 Z" id="Rectangle-1" sketch:type="MSShapeGroup" transform="translate(4942.391602, 5982.948115) scale(-1, 1) translate(-4942.391602, -5982.948115) "></path>
                <path d="M5553.19485,414.298743 L5688.3916,825.597487 L5260.30515,825.597487 L5125.1084,414.298743 L5553.19485,414.298743 Z" id="Rectangle-1" sketch:type="MSShapeGroup" transform="translate(5406.750000, 619.948115) scale(-1, 1) translate(-5406.750000, -619.948115) "></path>
                <path d="M5585.69485,1652.79874 L5720.8916,2064.09749 L5292.80515,2064.09749 L5157.6084,1652.79874 L5585.69485,1652.79874 Z" id="Rectangle-1" sketch:type="MSShapeGroup" transform="translate(5439.250000, 1858.448115) scale(-1, 1) translate(-5439.250000, -1858.448115) "></path>
                <path d="M5312.19485,2477.79874 L5447.3916,2889.09749 L5019.30515,2889.09749 L4884.1084,2477.79874 L5312.19485,2477.79874 Z" id="Rectangle-1" sketch:type="MSShapeGroup" transform="translate(5165.750000, 2683.448115) scale(-1, 1) translate(-5165.750000, -2683.448115) "></path>
                <path d="M5041.19485,3302.79874 L5176.3916,3714.09749 L4748.30515,3714.09749 L4613.1084,3302.79874 L5041.19485,3302.79874 Z" id="Rectangle-1" sketch:type="MSShapeGroup" transform="translate(4894.750000, 3508.448115) scale(-1, 1) translate(-4894.750000, -3508.448115) "></path>
                <path d="M5857.41164,824.798743 L5992.6084,1236.09749 L5564.52195,1236.09749 L5429.3252,824.798743 L5857.41164,824.798743 Z" id="Rectangle-1" sketch:type="MSShapeGroup" transform="translate(5710.966797, 1030.448115) scale(-1, 1) translate(-5710.966797, -1030.448115) "></path>
                <path d="M6123.69485,0.798743255 L6258.8916,412.097487 L5830.80515,412.097487 L5695.6084,0.798743255 L6123.69485,0.798743255 Z" id="Rectangle-1" sketch:type="MSShapeGroup" transform="translate(5977.250000, 206.448115) scale(-1, 1) translate(-5977.250000, -206.448115) "></path>
                <path d="M5881.69485,2064.29874 L6016.8916,2475.59749 L5588.80515,2475.59749 L5453.6084,2064.29874 L5881.69485,2064.29874 Z" id="Rectangle-1" sketch:type="MSShapeGroup" transform="translate(5735.250000, 2269.948115) scale(-1, 1) translate(-5735.250000, -2269.948115) "></path>
                <path d="M5610.69485,2890.29874 L5745.8916,3301.59749 L5317.80515,3301.59749 L5182.6084,2890.29874 L5610.69485,2890.29874 Z" id="Rectangle-1" sketch:type="MSShapeGroup" transform="translate(5464.250000, 3095.948115) scale(-1, 1) translate(-5464.250000, -3095.948115) "></path>
                <path d="M5340.19485,3715.29874 L5475.3916,4126.59749 L5047.30515,4126.59749 L4912.1084,3715.29874 L5340.19485,3715.29874 Z" id="Rectangle-1" sketch:type="MSShapeGroup" transform="translate(5193.750000, 3920.948115) scale(-1, 1) translate(-5193.750000, -3920.948115) "></path>
                <path d="M6155.83645,1238.29874 L6291.0332,1649.59749 L5862.94676,1649.59749 L5727.75,1238.29874 L6155.83645,1238.29874 Z" id="Rectangle-1" sketch:type="MSShapeGroup" transform="translate(6009.391602, 1443.948115) scale(-1, 1) translate(-6009.391602, -1443.948115) "></path>
                <path d="M6419.19485,414.298743 L6554.3916,825.597487 L6126.30515,825.597487 L5991.1084,414.298743 L6419.19485,414.298743 Z" id="Rectangle-1" sketch:type="MSShapeGroup" transform="translate(6272.750000, 619.948115) scale(-1, 1) translate(-6272.750000, -619.948115) "></path>
                <path d="M6451.69485,1652.79874 L6586.8916,2064.09749 L6158.80515,2064.09749 L6023.6084,1652.79874 L6451.69485,1652.79874 Z" id="Rectangle-1" sketch:type="MSShapeGroup" transform="translate(6305.250000, 1858.448115) scale(-1, 1) translate(-6305.250000, -1858.448115) "></path>
                <path d="M6178.19485,2477.79874 L6313.3916,2889.09749 L5885.30515,2889.09749 L5750.1084,2477.79874 L6178.19485,2477.79874 Z" id="Rectangle-1" sketch:type="MSShapeGroup" transform="translate(6031.750000, 2683.448115) scale(-1, 1) translate(-6031.750000, -2683.448115) "></path>
                <path d="M5907.19485,3302.79874 L6042.3916,3714.09749 L5614.30515,3714.09749 L5479.1084,3302.79874 L5907.19485,3302.79874 Z" id="Rectangle-1" sketch:type="MSShapeGroup" transform="translate(5760.750000, 3508.448115) scale(-1, 1) translate(-5760.750000, -3508.448115) "></path>
                <path d="M6723.41164,824.798743 L6858.6084,1236.09749 L6430.52195,1236.09749 L6295.3252,824.798743 L6723.41164,824.798743 Z" id="Rectangle-1" sketch:type="MSShapeGroup" transform="translate(6576.966797, 1030.448115) scale(-1, 1) translate(-6576.966797, -1030.448115) "></path>
                <path d="M6989.69485,0.798743255 L7124.8916,412.097487 L6696.80515,412.097487 L6561.6084,0.798743255 L6989.69485,0.798743255 Z" id="Rectangle-1" sketch:type="MSShapeGroup" transform="translate(6843.250000, 206.448115) scale(-1, 1) translate(-6843.250000, -206.448115) "></path>
                <path d="M6747.69485,2064.29874 L6882.8916,2475.59749 L6454.80515,2475.59749 L6319.6084,2064.29874 L6747.69485,2064.29874 Z" id="Rectangle-1" sketch:type="MSShapeGroup" transform="translate(6601.250000, 2269.948115) scale(-1, 1) translate(-6601.250000, -2269.948115) "></path>
                <path d="M6476.69485,2890.29874 L6611.8916,3301.59749 L6183.80515,3301.59749 L6048.6084,2890.29874 L6476.69485,2890.29874 Z" id="Rectangle-1" sketch:type="MSShapeGroup" transform="translate(6330.250000, 3095.948115) scale(-1, 1) translate(-6330.250000, -3095.948115) "></path>
                <path d="M6206.19485,3715.29874 L6341.3916,4126.59749 L5913.30515,4126.59749 L5778.1084,3715.29874 L6206.19485,3715.29874 Z" id="Rectangle-1" sketch:type="MSShapeGroup" transform="translate(6059.750000, 3920.948115) scale(-1, 1) translate(-6059.750000, -3920.948115) "></path>
                <path d="M7021.83645,1238.29874 L7157.0332,1649.59749 L6728.94676,1649.59749 L6593.75,1238.29874 L7021.83645,1238.29874 Z" id="Rectangle-1" sketch:type="MSShapeGroup" transform="translate(6875.391602, 1443.948115) scale(-1, 1) translate(-6875.391602, -1443.948115) "></path>
                <path d="M7285.19485,414.298743 L7420.3916,825.597487 L6992.30515,825.597487 L6857.1084,414.298743 L7285.19485,414.298743 Z" id="Rectangle-1" sketch:type="MSShapeGroup" transform="translate(7138.750000, 619.948115) scale(-1, 1) translate(-7138.750000, -619.948115) "></path>
                <path d="M7317.69485,1652.79874 L7452.8916,2064.09749 L7024.80515,2064.09749 L6889.6084,1652.79874 L7317.69485,1652.79874 Z" id="Rectangle-1" sketch:type="MSShapeGroup" transform="translate(7171.250000, 1858.448115) scale(-1, 1) translate(-7171.250000, -1858.448115) "></path>
                <path d="M7044.19485,2477.79874 L7179.3916,2889.09749 L6751.30515,2889.09749 L6616.1084,2477.79874 L7044.19485,2477.79874 Z" id="Rectangle-1" sketch:type="MSShapeGroup" transform="translate(6897.750000, 2683.448115) scale(-1, 1) translate(-6897.750000, -2683.448115) "></path>
                <path d="M6773.19485,3302.79874 L6908.3916,3714.09749 L6480.30515,3714.09749 L6345.1084,3302.79874 L6773.19485,3302.79874 Z" id="Rectangle-1" sketch:type="MSShapeGroup" transform="translate(6626.750000, 3508.448115) scale(-1, 1) translate(-6626.750000, -3508.448115) "></path>
                <path d="M7589.41164,824.798743 L7724.6084,1236.09749 L7296.52195,1236.09749 L7161.3252,824.798743 L7589.41164,824.798743 Z" id="Rectangle-1" sketch:type="MSShapeGroup" transform="translate(7442.966797, 1030.448115) scale(-1, 1) translate(-7442.966797, -1030.448115) "></path>
                <path d="M7855.69485,0.798743255 L7990.8916,412.097487 L7562.80515,412.097487 L7427.6084,0.798743255 L7855.69485,0.798743255 Z" id="Rectangle-1" sketch:type="MSShapeGroup" transform="translate(7709.250000, 206.448115) scale(-1, 1) translate(-7709.250000, -206.448115) "></path>
                <path d="M7613.69485,2064.29874 L7748.8916,2475.59749 L7320.80515,2475.59749 L7185.6084,2064.29874 L7613.69485,2064.29874 Z" id="Rectangle-1" sketch:type="MSShapeGroup" transform="translate(7467.250000, 2269.948115) scale(-1, 1) translate(-7467.250000, -2269.948115) "></path>
                <path d="M7342.69485,2890.29874 L7477.8916,3301.59749 L7049.80515,3301.59749 L6914.6084,2890.29874 L7342.69485,2890.29874 Z" id="Rectangle-1" sketch:type="MSShapeGroup" transform="translate(7196.250000, 3095.948115) scale(-1, 1) translate(-7196.250000, -3095.948115) "></path>
                <path d="M7072.19485,3715.29874 L7207.3916,4126.59749 L6779.30515,4126.59749 L6644.1084,3715.29874 L7072.19485,3715.29874 Z" id="Rectangle-1" sketch:type="MSShapeGroup" transform="translate(6925.750000, 3920.948115) scale(-1, 1) translate(-6925.750000, -3920.948115) "></path>
                <path d="M7887.83645,1238.29874 L8023.0332,1649.59749 L7594.94676,1649.59749 L7459.75,1238.29874 L7887.83645,1238.29874 Z" id="Rectangle-1" sketch:type="MSShapeGroup" transform="translate(7741.391602, 1443.948115) scale(-1, 1) translate(-7741.391602, -1443.948115) "></path>
                <path d="M8151.19485,414.298743 L8286.3916,825.597487 L7858.30515,825.597487 L7723.1084,414.298743 L8151.19485,414.298743 Z" id="Rectangle-1" sketch:type="MSShapeGroup" transform="translate(8004.750000, 619.948115) scale(-1, 1) translate(-8004.750000, -619.948115) "></path>
                <path d="M8183.69485,1652.79874 L8318.8916,2064.09749 L7890.80515,2064.09749 L7755.6084,1652.79874 L8183.69485,1652.79874 Z" id="Rectangle-1" sketch:type="MSShapeGroup" transform="translate(8037.250000, 1858.448115) scale(-1, 1) translate(-8037.250000, -1858.448115) "></path>
                <path d="M7910.19485,2477.79874 L8045.3916,2889.09749 L7617.30515,2889.09749 L7482.1084,2477.79874 L7910.19485,2477.79874 Z" id="Rectangle-1" sketch:type="MSShapeGroup" transform="translate(7763.750000, 2683.448115) scale(-1, 1) translate(-7763.750000, -2683.448115) "></path>
                <path d="M7639.19485,3302.79874 L7774.3916,3714.09749 L7346.30515,3714.09749 L7211.1084,3302.79874 L7639.19485,3302.79874 Z" id="Rectangle-1" sketch:type="MSShapeGroup" transform="translate(7492.750000, 3508.448115) scale(-1, 1) translate(-7492.750000, -3508.448115) "></path>
                <path d="M8455.41164,824.798743 L8590.6084,1236.09749 L8162.52195,1236.09749 L8027.3252,824.798743 L8455.41164,824.798743 Z" id="Rectangle-1" sketch:type="MSShapeGroup" transform="translate(8308.966797, 1030.448115) scale(-1, 1) translate(-8308.966797, -1030.448115) "></path>
                <path d="M8721.69485,0.798743255 L8856.8916,412.097487 L8428.80515,412.097487 L8293.6084,0.798743255 L8721.69485,0.798743255 Z" id="Rectangle-1" sketch:type="MSShapeGroup" transform="translate(8575.250000, 206.448115) scale(-1, 1) translate(-8575.250000, -206.448115) "></path>
                <path d="M8479.69485,2064.29874 L8614.8916,2475.59749 L8186.80515,2475.59749 L8051.6084,2064.29874 L8479.69485,2064.29874 Z" id="Rectangle-1" sketch:type="MSShapeGroup" transform="translate(8333.250000, 2269.948115) scale(-1, 1) translate(-8333.250000, -2269.948115) "></path>
                <path d="M8208.69485,2890.29874 L8343.8916,3301.59749 L7915.80515,3301.59749 L7780.6084,2890.29874 L8208.69485,2890.29874 Z" id="Rectangle-1" sketch:type="MSShapeGroup" transform="translate(8062.250000, 3095.948115) scale(-1, 1) translate(-8062.250000, -3095.948115) "></path>
                <path d="M7938.19485,3715.29874 L8073.3916,4126.59749 L7645.30515,4126.59749 L7510.1084,3715.29874 L7938.19485,3715.29874 Z" id="Rectangle-1" sketch:type="MSShapeGroup" transform="translate(7791.750000, 3920.948115) scale(-1, 1) translate(-7791.750000, -3920.948115) "></path>
                <path d="M8753.83645,1238.29874 L8889.0332,1649.59749 L8460.94676,1649.59749 L8325.75,1238.29874 L8753.83645,1238.29874 Z" id="Rectangle-1" sketch:type="MSShapeGroup" transform="translate(8607.391602, 1443.948115) scale(-1, 1) translate(-8607.391602, -1443.948115) "></path>
                <path d="M9017.19485,414.298743 L9152.3916,825.597487 L8724.30515,825.597487 L8589.1084,414.298743 L9017.19485,414.298743 Z" id="Rectangle-1" sketch:type="MSShapeGroup" transform="translate(8870.750000, 619.948115) scale(-1, 1) translate(-8870.750000, -619.948115) "></path>
                <path d="M9049.69485,1652.79874 L9184.8916,2064.09749 L8756.80515,2064.09749 L8621.6084,1652.79874 L9049.69485,1652.79874 Z" id="Rectangle-1" sketch:type="MSShapeGroup" transform="translate(8903.250000, 1858.448115) scale(-1, 1) translate(-8903.250000, -1858.448115) "></path>
                <path d="M8776.19485,2477.79874 L8911.3916,2889.09749 L8483.30515,2889.09749 L8348.1084,2477.79874 L8776.19485,2477.79874 Z" id="Rectangle-1" sketch:type="MSShapeGroup" transform="translate(8629.750000, 2683.448115) scale(-1, 1) translate(-8629.750000, -2683.448115) "></path>
                <path d="M8505.19485,3302.79874 L8640.3916,3714.09749 L8212.30515,3714.09749 L8077.1084,3302.79874 L8505.19485,3302.79874 Z" id="Rectangle-1" sketch:type="MSShapeGroup" transform="translate(8358.750000, 3508.448115) scale(-1, 1) translate(-8358.750000, -3508.448115) "></path>
                <path d="M9321.41164,824.798743 L9456.6084,1236.09749 L9028.52195,1236.09749 L8893.3252,824.798743 L9321.41164,824.798743 Z" id="Rectangle-1" sketch:type="MSShapeGroup" transform="translate(9174.966797, 1030.448115) scale(-1, 1) translate(-9174.966797, -1030.448115) "></path>
                <path d="M9345.69485,2064.29874 L9480.8916,2475.59749 L9052.80515,2475.59749 L8917.6084,2064.29874 L9345.69485,2064.29874 Z" id="Rectangle-1" sketch:type="MSShapeGroup" transform="translate(9199.250000, 2269.948115) scale(-1, 1) translate(-9199.250000, -2269.948115) "></path>
                <path d="M8781.80515,2890.29874 L8646.6084,3301.59749 L9074.69485,3301.59749 L9209.8916,2890.29874 L8781.80515,2890.29874 Z" id="Rectangle-1" sketch:type="MSShapeGroup"></path>
                <path d="M8804.19485,3715.29874 L8939.3916,4126.59749 L8511.30515,4126.59749 L8376.1084,3715.29874 L8804.19485,3715.29874 Z" id="Rectangle-1" sketch:type="MSShapeGroup" transform="translate(8657.750000, 3920.948115) scale(-1, 1) translate(-8657.750000, -3920.948115) "></path>
                <path d="M9371.19485,3302.79874 L9506.3916,3714.09749 L9078.30515,3714.09749 L8943.1084,3302.79874 L9371.19485,3302.79874 Z" id="Rectangle-1" sketch:type="MSShapeGroup" transform="translate(9224.750000, 3508.448115) scale(-1, 1) translate(-9224.750000, -3508.448115) "></path>
                <path d="M5257.69485,0.798743255 L5392.8916,412.097487 L4964.80515,412.097487 L4829.6084,0.798743255 L5257.69485,0.798743255 Z" id="Rectangle-1" sketch:type="MSShapeGroup" transform="translate(5111.250000, 206.448115) scale(-1, 1) translate(-5111.250000, -206.448115) "></path>
                <path d="M5015.69485,2064.29874 L5150.8916,2475.59749 L4722.80515,2475.59749 L4587.6084,2064.29874 L5015.69485,2064.29874 Z" id="Rectangle-1" sketch:type="MSShapeGroup" transform="translate(4869.250000, 2269.948115) scale(-1, 1) translate(-4869.250000, -2269.948115) "></path>
                <path d="M4744.69485,2890.29874 L4879.8916,3301.59749 L4451.80515,3301.59749 L4316.6084,2890.29874 L4744.69485,2890.29874 Z" id="Rectangle-1" sketch:type="MSShapeGroup" transform="translate(4598.250000, 3095.948115) scale(-1, 1) translate(-4598.250000, -3095.948115) "></path>
                <path d="M4474.19485,3715.29874 L4609.3916,4126.59749 L4181.30515,4126.59749 L4046.1084,3715.29874 L4474.19485,3715.29874 Z" id="Rectangle-1" sketch:type="MSShapeGroup" transform="translate(4327.750000, 3920.948115) scale(-1, 1) translate(-4327.750000, -3920.948115) "></path>
                <path d="M5289.83645,1238.29874 L5425.0332,1649.59749 L4996.94676,1649.59749 L4861.75,1238.29874 L5289.83645,1238.29874 Z" id="Rectangle-1" sketch:type="MSShapeGroup" transform="translate(5143.391602, 1443.948115) scale(-1, 1) translate(-5143.391602, -1443.948115) "></path>
                <path d="M5923.69485,4539.79874 L6058.8916,4951.09749 L5630.80515,4951.09749 L5495.6084,4539.79874 L5923.69485,4539.79874 Z" id="Rectangle-1" sketch:type="MSShapeGroup" transform="translate(5777.250000, 4745.448115) scale(-1, 1) translate(-5777.250000, -4745.448115) "></path>
                <path d="M5625.19485,4134.29874 L5760.3916,4545.59749 L5332.30515,4545.59749 L5197.1084,4134.29874 L5625.19485,4134.29874 Z" id="Rectangle-1" sketch:type="MSShapeGroup" transform="translate(5478.750000, 4339.948115) scale(-1, 1) translate(-5478.750000, -4339.948115) "></path>
                <path d="M5681.69485,6603.29874 L5816.8916,7014.59749 L5388.80515,7014.59749 L5253.6084,6603.29874 L5681.69485,6603.29874 Z" id="Rectangle-1" sketch:type="MSShapeGroup" transform="translate(5535.250000, 6808.948115) scale(-1, 1) translate(-5535.250000, -6808.948115) "></path>
                <path d="M5410.69485,7429.29874 L5545.8916,7840.59749 L5117.80515,7840.59749 L4982.6084,7429.29874 L5410.69485,7429.29874 Z" id="Rectangle-1" sketch:type="MSShapeGroup" transform="translate(5264.250000, 7634.948115) scale(-1, 1) translate(-5264.250000, -7634.948115) "></path>
                <path d="M5140.19485,8254.29874 L5275.3916,8665.59749 L4847.30515,8665.59749 L4712.1084,8254.29874 L5140.19485,8254.29874 Z" id="Rectangle-1" sketch:type="MSShapeGroup" transform="translate(4993.750000, 8459.948115) scale(-1, 1) translate(-4993.750000, -8459.948115) "></path>
                <path d="M5955.83645,5777.29874 L6091.0332,6188.59749 L5662.94676,6188.59749 L5527.75,5777.29874 L5955.83645,5777.29874 Z" id="Rectangle-1" sketch:type="MSShapeGroup" transform="translate(5809.391602, 5982.948115) scale(-1, 1) translate(-5809.391602, -5982.948115) "></path>
                <path d="M6219.19485,4953.29874 L6354.3916,5364.59749 L5926.30515,5364.59749 L5791.1084,4953.29874 L6219.19485,4953.29874 Z" id="Rectangle-1" sketch:type="MSShapeGroup" transform="translate(6072.750000, 5158.948115) scale(-1, 1) translate(-6072.750000, -5158.948115) "></path>
                <path d="M6251.69485,6191.79874 L6386.8916,6603.09749 L5958.80515,6603.09749 L5823.6084,6191.79874 L6251.69485,6191.79874 Z" id="Rectangle-1" sketch:type="MSShapeGroup" transform="translate(6105.250000, 6397.448115) scale(-1, 1) translate(-6105.250000, -6397.448115) "></path>
                <path d="M5978.19485,7016.79874 L6113.3916,7428.09749 L5685.30515,7428.09749 L5550.1084,7016.79874 L5978.19485,7016.79874 Z" id="Rectangle-1" sketch:type="MSShapeGroup" transform="translate(5831.750000, 7222.448115) scale(-1, 1) translate(-5831.750000, -7222.448115) "></path>
                <path d="M5707.19485,7841.79874 L5842.3916,8253.09749 L5414.30515,8253.09749 L5279.1084,7841.79874 L5707.19485,7841.79874 Z" id="Rectangle-1" sketch:type="MSShapeGroup" transform="translate(5560.750000, 8047.448115) scale(-1, 1) translate(-5560.750000, -8047.448115) "></path>
                <path d="M6523.41164,5363.79874 L6658.6084,5775.09749 L6230.52195,5775.09749 L6095.3252,5363.79874 L6523.41164,5363.79874 Z" id="Rectangle-1" sketch:type="MSShapeGroup" transform="translate(6376.966797, 5569.448115) scale(-1, 1) translate(-6376.966797, -5569.448115) "></path>
                <path d="M6789.69485,4539.79874 L6924.8916,4951.09749 L6496.80515,4951.09749 L6361.6084,4539.79874 L6789.69485,4539.79874 Z" id="Rectangle-1" sketch:type="MSShapeGroup" transform="translate(6643.250000, 4745.448115) scale(-1, 1) translate(-6643.250000, -4745.448115) "></path>
                <path d="M6491.19485,4134.29874 L6626.3916,4545.59749 L6198.30515,4545.59749 L6063.1084,4134.29874 L6491.19485,4134.29874 Z" id="Rectangle-1" sketch:type="MSShapeGroup" transform="translate(6344.750000, 4339.948115) scale(-1, 1) translate(-6344.750000, -4339.948115) "></path>
                <path d="M6547.69485,6603.29874 L6682.8916,7014.59749 L6254.80515,7014.59749 L6119.6084,6603.29874 L6547.69485,6603.29874 Z" id="Rectangle-1" sketch:type="MSShapeGroup" transform="translate(6401.250000, 6808.948115) scale(-1, 1) translate(-6401.250000, -6808.948115) "></path>
                <path d="M6276.69485,7429.29874 L6411.8916,7840.59749 L5983.80515,7840.59749 L5848.6084,7429.29874 L6276.69485,7429.29874 Z" id="Rectangle-1" sketch:type="MSShapeGroup" transform="translate(6130.250000, 7634.948115) scale(-1, 1) translate(-6130.250000, -7634.948115) "></path>
                <path d="M6006.19485,8254.29874 L6141.3916,8665.59749 L5713.30515,8665.59749 L5578.1084,8254.29874 L6006.19485,8254.29874 Z" id="Rectangle-1" sketch:type="MSShapeGroup" transform="translate(5859.750000, 8459.948115) scale(-1, 1) translate(-5859.750000, -8459.948115) "></path>
                <path d="M6821.83645,5777.29874 L6957.0332,6188.59749 L6528.94676,6188.59749 L6393.75,5777.29874 L6821.83645,5777.29874 Z" id="Rectangle-1" sketch:type="MSShapeGroup" transform="translate(6675.391602, 5982.948115) scale(-1, 1) translate(-6675.391602, -5982.948115) "></path>
                <path d="M7085.19485,4953.29874 L7220.3916,5364.59749 L6792.30515,5364.59749 L6657.1084,4953.29874 L7085.19485,4953.29874 Z" id="Rectangle-1" sketch:type="MSShapeGroup" transform="translate(6938.750000, 5158.948115) scale(-1, 1) translate(-6938.750000, -5158.948115) "></path>
                <path d="M7117.69485,6191.79874 L7252.8916,6603.09749 L6824.80515,6603.09749 L6689.6084,6191.79874 L7117.69485,6191.79874 Z" id="Rectangle-1" sketch:type="MSShapeGroup" transform="translate(6971.250000, 6397.448115) scale(-1, 1) translate(-6971.250000, -6397.448115) "></path>
                <path d="M6844.19485,7016.79874 L6979.3916,7428.09749 L6551.30515,7428.09749 L6416.1084,7016.79874 L6844.19485,7016.79874 Z" id="Rectangle-1" sketch:type="MSShapeGroup" transform="translate(6697.750000, 7222.448115) scale(-1, 1) translate(-6697.750000, -7222.448115) "></path>
                <path d="M6573.19485,7841.79874 L6708.3916,8253.09749 L6280.30515,8253.09749 L6145.1084,7841.79874 L6573.19485,7841.79874 Z" id="Rectangle-1" sketch:type="MSShapeGroup" transform="translate(6426.750000, 8047.448115) scale(-1, 1) translate(-6426.750000, -8047.448115) "></path>
                <path d="M7389.41164,5363.79874 L7524.6084,5775.09749 L7096.52195,5775.09749 L6961.3252,5363.79874 L7389.41164,5363.79874 Z" id="Rectangle-1" sketch:type="MSShapeGroup" transform="translate(7242.966797, 5569.448115) scale(-1, 1) translate(-7242.966797, -5569.448115) "></path>
                <path d="M7655.69485,4539.79874 L7790.8916,4951.09749 L7362.80515,4951.09749 L7227.6084,4539.79874 L7655.69485,4539.79874 Z" id="Rectangle-1" sketch:type="MSShapeGroup" transform="translate(7509.250000, 4745.448115) scale(-1, 1) translate(-7509.250000, -4745.448115) "></path>
                <path d="M7357.19485,4134.29874 L7492.3916,4545.59749 L7064.30515,4545.59749 L6929.1084,4134.29874 L7357.19485,4134.29874 Z" id="Rectangle-1" sketch:type="MSShapeGroup" transform="translate(7210.750000, 4339.948115) scale(-1, 1) translate(-7210.750000, -4339.948115) "></path>
                <path d="M7413.69485,6603.29874 L7548.8916,7014.59749 L7120.80515,7014.59749 L6985.6084,6603.29874 L7413.69485,6603.29874 Z" id="Rectangle-1" sketch:type="MSShapeGroup" transform="translate(7267.250000, 6808.948115) scale(-1, 1) translate(-7267.250000, -6808.948115) "></path>
                <path d="M7142.69485,7429.29874 L7277.8916,7840.59749 L6849.80515,7840.59749 L6714.6084,7429.29874 L7142.69485,7429.29874 Z" id="Rectangle-1" sketch:type="MSShapeGroup" transform="translate(6996.250000, 7634.948115) scale(-1, 1) translate(-6996.250000, -7634.948115) "></path>
                <path d="M6872.19485,8254.29874 L7007.3916,8665.59749 L6579.30515,8665.59749 L6444.1084,8254.29874 L6872.19485,8254.29874 Z" id="Rectangle-1" sketch:type="MSShapeGroup" transform="translate(6725.750000, 8459.948115) scale(-1, 1) translate(-6725.750000, -8459.948115) "></path>
                <path d="M7687.83645,5777.29874 L7823.0332,6188.59749 L7394.94676,6188.59749 L7259.75,5777.29874 L7687.83645,5777.29874 Z" id="Rectangle-1" sketch:type="MSShapeGroup" transform="translate(7541.391602, 5982.948115) scale(-1, 1) translate(-7541.391602, -5982.948115) "></path>
                <path d="M7951.19485,4953.29874 L8086.3916,5364.59749 L7658.30515,5364.59749 L7523.1084,4953.29874 L7951.19485,4953.29874 Z" id="Rectangle-1" sketch:type="MSShapeGroup" transform="translate(7804.750000, 5158.948115) scale(-1, 1) translate(-7804.750000, -5158.948115) "></path>
                <path d="M7983.69485,6191.79874 L8118.8916,6603.09749 L7690.80515,6603.09749 L7555.6084,6191.79874 L7983.69485,6191.79874 Z" id="Rectangle-1" sketch:type="MSShapeGroup" transform="translate(7837.250000, 6397.448115) scale(-1, 1) translate(-7837.250000, -6397.448115) "></path>
                <path d="M7710.19485,7016.79874 L7845.3916,7428.09749 L7417.30515,7428.09749 L7282.1084,7016.79874 L7710.19485,7016.79874 Z" id="Rectangle-1" sketch:type="MSShapeGroup" transform="translate(7563.750000, 7222.448115) scale(-1, 1) translate(-7563.750000, -7222.448115) "></path>
                <path d="M7439.19485,7841.79874 L7574.3916,8253.09749 L7146.30515,8253.09749 L7011.1084,7841.79874 L7439.19485,7841.79874 Z" id="Rectangle-1" sketch:type="MSShapeGroup" transform="translate(7292.750000, 8047.448115) scale(-1, 1) translate(-7292.750000, -8047.448115) "></path>
                <path d="M8255.41164,5363.79874 L8390.6084,5775.09749 L7962.52195,5775.09749 L7827.3252,5363.79874 L8255.41164,5363.79874 Z" id="Rectangle-1" sketch:type="MSShapeGroup" transform="translate(8108.966797, 5569.448115) scale(-1, 1) translate(-8108.966797, -5569.448115) "></path>
                <path d="M8521.69485,4539.79874 L8656.8916,4951.09749 L8228.80515,4951.09749 L8093.6084,4539.79874 L8521.69485,4539.79874 Z" id="Rectangle-1" sketch:type="MSShapeGroup" transform="translate(8375.250000, 4745.448115) scale(-1, 1) translate(-8375.250000, -4745.448115) "></path>
                <path d="M8223.19485,4134.29874 L8358.3916,4545.59749 L7930.30515,4545.59749 L7795.1084,4134.29874 L8223.19485,4134.29874 Z" id="Rectangle-1" sketch:type="MSShapeGroup" transform="translate(8076.750000, 4339.948115) scale(-1, 1) translate(-8076.750000, -4339.948115) "></path>
                <path d="M8279.69485,6603.29874 L8414.8916,7014.59749 L7986.80515,7014.59749 L7851.6084,6603.29874 L8279.69485,6603.29874 Z" id="Rectangle-1" sketch:type="MSShapeGroup" transform="translate(8133.250000, 6808.948115) scale(-1, 1) translate(-8133.250000, -6808.948115) "></path>
                <path d="M8008.69485,7429.29874 L8143.8916,7840.59749 L7715.80515,7840.59749 L7580.6084,7429.29874 L8008.69485,7429.29874 Z" id="Rectangle-1" sketch:type="MSShapeGroup" transform="translate(7862.250000, 7634.948115) scale(-1, 1) translate(-7862.250000, -7634.948115) "></path>
                <path d="M7738.19485,8254.29874 L7873.3916,8665.59749 L7445.30515,8665.59749 L7310.1084,8254.29874 L7738.19485,8254.29874 Z" id="Rectangle-1" sketch:type="MSShapeGroup" transform="translate(7591.750000, 8459.948115) scale(-1, 1) translate(-7591.750000, -8459.948115) "></path>
                <path d="M8553.83645,5777.29874 L8689.0332,6188.59749 L8260.94676,6188.59749 L8125.75,5777.29874 L8553.83645,5777.29874 Z" id="Rectangle-1" sketch:type="MSShapeGroup" transform="translate(8407.391602, 5982.948115) scale(-1, 1) translate(-8407.391602, -5982.948115) "></path>
                <path d="M8817.19485,4953.29874 L8952.3916,5364.59749 L8524.30515,5364.59749 L8389.1084,4953.29874 L8817.19485,4953.29874 Z" id="Rectangle-1" sketch:type="MSShapeGroup" transform="translate(8670.750000, 5158.948115) scale(-1, 1) translate(-8670.750000, -5158.948115) "></path>
                <path d="M8849.69485,6191.79874 L8984.8916,6603.09749 L8556.80515,6603.09749 L8421.6084,6191.79874 L8849.69485,6191.79874 Z" id="Rectangle-1" sketch:type="MSShapeGroup" transform="translate(8703.250000, 6397.448115) scale(-1, 1) translate(-8703.250000, -6397.448115) "></path>
                <path d="M8576.19485,7016.79874 L8711.3916,7428.09749 L8283.30515,7428.09749 L8148.1084,7016.79874 L8576.19485,7016.79874 Z" id="Rectangle-1" sketch:type="MSShapeGroup" transform="translate(8429.750000, 7222.448115) scale(-1, 1) translate(-8429.750000, -7222.448115) "></path>
                <path d="M8305.19485,7841.79874 L8440.3916,8253.09749 L8012.30515,8253.09749 L7877.1084,7841.79874 L8305.19485,7841.79874 Z" id="Rectangle-1" sketch:type="MSShapeGroup" transform="translate(8158.750000, 8047.448115) scale(-1, 1) translate(-8158.750000, -8047.448115) "></path>
                <path d="M9121.41164,5363.79874 L9256.6084,5775.09749 L8828.52195,5775.09749 L8693.3252,5363.79874 L9121.41164,5363.79874 Z" id="Rectangle-1" sketch:type="MSShapeGroup" transform="translate(8974.966797, 5569.448115) scale(-1, 1) translate(-8974.966797, -5569.448115) "></path>
                <path d="M9089.19485,4134.29874 L9224.3916,4545.59749 L8796.30515,4545.59749 L8661.1084,4134.29874 L9089.19485,4134.29874 Z" id="Rectangle-1" sketch:type="MSShapeGroup" transform="translate(8942.750000, 4339.948115) scale(-1, 1) translate(-8942.750000, -4339.948115) "></path>
                <path d="M9145.69485,6603.29874 L9280.8916,7014.59749 L8852.80515,7014.59749 L8717.6084,6603.29874 L9145.69485,6603.29874 Z" id="Rectangle-1" sketch:type="MSShapeGroup" transform="translate(8999.250000, 6808.948115) scale(-1, 1) translate(-8999.250000, -6808.948115) "></path>
                <path d="M8874.69485,7429.29874 L9009.8916,7840.59749 L8581.80515,7840.59749 L8446.6084,7429.29874 L8874.69485,7429.29874 Z" id="Rectangle-1" sketch:type="MSShapeGroup" transform="translate(8728.250000, 7634.948115) scale(-1, 1) translate(-8728.250000, -7634.948115) "></path>
                <path d="M8604.19485,8254.29874 L8739.3916,8665.59749 L8311.30515,8665.59749 L8176.1084,8254.29874 L8604.19485,8254.29874 Z" id="Rectangle-1" sketch:type="MSShapeGroup" transform="translate(8457.750000, 8459.948115) scale(-1, 1) translate(-8457.750000, -8459.948115) "></path>
                <path d="M9171.19485,7841.79874 L9306.3916,8253.09749 L8878.30515,8253.09749 L8743.1084,7841.79874 L9171.19485,7841.79874 Z" id="Rectangle-1" sketch:type="MSShapeGroup" transform="translate(9024.750000, 8047.448115) scale(-1, 1) translate(-9024.750000, -8047.448115) "></path>
                <path d="M5353.19485,4953.29874 L5488.3916,5364.59749 L5060.30515,5364.59749 L4925.1084,4953.29874 L5353.19485,4953.29874 Z" id="Rectangle-1" sketch:type="MSShapeGroup" transform="translate(5206.750000, 5158.948115) scale(-1, 1) translate(-5206.750000, -5158.948115) "></path>
                <path d="M5385.69485,6191.79874 L5520.8916,6603.09749 L5092.80515,6603.09749 L4957.6084,6191.79874 L5385.69485,6191.79874 Z" id="Rectangle-1" sketch:type="MSShapeGroup" transform="translate(5239.250000, 6397.448115) scale(-1, 1) translate(-5239.250000, -6397.448115) "></path>
                <path d="M5112.19485,7016.79874 L5247.3916,7428.09749 L4819.30515,7428.09749 L4684.1084,7016.79874 L5112.19485,7016.79874 Z" id="Rectangle-1" sketch:type="MSShapeGroup" transform="translate(4965.750000, 7222.448115) scale(-1, 1) translate(-4965.750000, -7222.448115) "></path>
                <path d="M4841.19485,7841.79874 L4976.3916,8253.09749 L4548.30515,8253.09749 L4413.1084,7841.79874 L4841.19485,7841.79874 Z" id="Rectangle-1" sketch:type="MSShapeGroup" transform="translate(4694.750000, 8047.448115) scale(-1, 1) translate(-4694.750000, -8047.448115) "></path>
                <path d="M5657.41164,5363.79874 L5792.6084,5775.09749 L5364.52195,5775.09749 L5229.3252,5363.79874 L5657.41164,5363.79874 Z" id="Rectangle-1" sketch:type="MSShapeGroup" transform="translate(5510.966797, 5569.448115) scale(-1, 1) translate(-5510.966797, -5569.448115) "></path>
            </g>
        </g>
    </g>
</svg>