<?xml version="1.0" encoding="UTF-8" standalone="no"?>
<svg width="8230px" height="8266px" viewBox="0 0 8230 8266" version="1.1" xmlns="http://www.w3.org/2000/svg" xmlns:xlink="http://www.w3.org/1999/xlink" xmlns:sketch="http://www.bohemiancoding.com/sketch/ns">
    <!-- Generator: Sketch 3.2.2 (9983) - http://www.bohemiancoding.com/sketch -->
    <title>completo</title>
    <desc>Created with Sketch.</desc>
    <defs></defs>
    <g id="Page-1" stroke="none" stroke-width="1" fill="none" fill-rule="evenodd" sketch:type="MSPage">
        <g id="completo" sketch:type="MSArtboardGroup">
            <path d="M2402.50867,1043.29135 L2942.83917,2687.09749 L1231.9389,2687.09749 L691.608398,1043.29135 L2402.50867,1043.29135 Z" id="Rectangle-1" fill="#B02D23" sketch:type="MSShapeGroup" transform="translate(1817.223784, 1865.194417) scale(-1, 1) translate(-1817.223784, -1865.194417) "></path>
            <path d="M4418.54929,1040.99741 L4691.08025,1870.09749 L3828.13936,1870.09749 L3555.6084,1040.99741 L4418.54929,1040.99741 Z" id="Rectangle-1" fill="#B02D23" sketch:type="MSShapeGroup" transform="translate(4123.344326, 1455.547448) scale(-1, 1) translate(-4123.344326, -1455.547448) "></path>
            <path d="M5452.54929,3103.99741 L5725.08025,3933.09749 L4862.13936,3933.09749 L4589.6084,3103.99741 L5452.54929,3103.99741 Z" id="Rectangle-1" fill="#B02D23" sketch:type="MSShapeGroup" transform="translate(5157.344326, 3518.547448) scale(-1, 1) translate(-5157.344326, -3518.547448) "></path>
            <path d="M6945.54929,5165.99741 L7218.08025,5995.09749 L6355.13936,5995.09749 L6082.6084,5165.99741 L6945.54929,5165.99741 Z" id="Rectangle-1" fill="#B02D23" sketch:type="MSShapeGroup" transform="translate(6650.344326, 5580.547448) scale(-1, 1) translate(-6650.344326, -5580.547448) "></path>
            <path d="M6530.69485,6811.60008 L6665.8916,7222.89882 L6237.80515,7222.89882 L6102.6084,6811.60008 L6530.69485,6811.60008 Z" id="Rectangle-1" fill="#B02D23" sketch:type="MSShapeGroup" transform="translate(6384.250000, 7017.249448) scale(-1, 1) translate(-6384.250000, -7017.249448) "></path>
            <path d="M7478.83198,3103.99741 L7885.3584,4340.74163 L6598.13482,4340.74163 L6191.6084,3103.99741 L7478.83198,3103.99741 Z" id="Rectangle-1" fill="#B02D23" sketch:type="MSShapeGroup" transform="translate(7038.483398, 3722.369520) scale(-1, 1) translate(-7038.483398, -3722.369520) "></path>
            <path d="M6297.83198,1450.99741 L6704.3584,2687.74163 L5417.13482,2687.74163 L5010.6084,1450.99741 L6297.83198,1450.99741 Z" id="Rectangle-1" fill="#B02D23" sketch:type="MSShapeGroup" transform="translate(5857.483398, 2069.369520) scale(-1, 1) translate(-5857.483398, -2069.369520) "></path>
            <path d="M1974.11692,4187.06368 L2241.84815,5002.24936 L1394.10509,5002.24936 L1126.37385,4187.06368 L1974.11692,4187.06368 Z M3322.36879,4363.01276 L2629.81463,4869.54652 L2367.84762,4063.29495 L3060.40177,3556.76119 L3322.36879,4363.01276 Z M3571.66401,5699.64773 L2875.91077,5197.51713 L3561.74932,4699.22626 L4257.50256,5201.35686 L3571.66401,5699.64773 Z M2377.48507,6349.7845 L2640.04007,5532.91696 L3325.87862,6031.20784 L3063.32362,6848.07538 L2377.48507,6349.7845 Z M1390.14667,5414.95615 L2248.16782,5412.23484 L1986.20081,6218.48641 L1128.17965,6221.20772 L1390.14667,5414.95615 Z" id="Rectangle-2" fill="#007ED2" sketch:type="MSShapeGroup"></path>
            <g id="Group" sketch:type="MSLayerGroup" transform="translate(-921.000000, -608.000000)" fill="#B02D23">
                <path d="M1286.5409,407.99741 L1559.07186,1237.09749 L696.130965,1237.09749 L423.600006,407.99741 L1286.5409,407.99741 Z" id="Rectangle-1" sketch:type="MSShapeGroup" transform="translate(991.335934, 822.547448) scale(-1, 1) translate(-991.335934, -822.547448) "></path>
                <path d="M9619.82367,8250.99741 L10026.3501,9487.74163 L8739.12652,9487.74163 L8332.6001,8250.99741 L9619.82367,8250.99741 Z" id="Rectangle-1" sketch:type="MSShapeGroup" transform="translate(9179.475098, 8869.369520) scale(-1, 1) translate(-9179.475098, -8869.369520) "></path>
                <path d="M1287.83198,8240.99741 L1694.3584,9477.74163 L407.134821,9477.74163 L0.608398438,8240.99741 L1287.83198,8240.99741 Z" id="Rectangle-1" sketch:type="MSShapeGroup" transform="translate(847.483398, 8859.369520) scale(-1, 1) translate(-847.483398, -8859.369520) "></path>
                <path d="M9628.83198,0.353265267 L10035.3584,1237.09749 L8748.13482,1237.09749 L8341.6084,0.353265267 L9628.83198,0.353265267 Z" id="Rectangle-1" sketch:type="MSShapeGroup" transform="translate(9188.483398, 618.725376) scale(-1, 1) translate(-9188.483398, -618.725376) "></path>
            </g>
        </g>
    </g>
</svg>